<svg xmlns="http://www.w3.org/2000/svg" xmlns:xlink="http://www.w3.org/1999/xlink" fill="none" version="1.1" width="36" height="36" viewBox="0 0 36 36"><defs><clipPath id="master_svg0_40_05791"><rect x="0" y="0" width="36" height="36" rx="0"/></clipPath></defs><g clip-path="url(#master_svg0_40_05791)"><g><path d="M17.999990185546874,34.49916484375C8.901580185546875,34.49916484375,1.501190185546875,27.09876484375,1.501190185546875,18.00026484375C1.501190185546875,8.90185484375,8.901580185546875,1.50146484375,17.999990185546874,1.50146484375C27.098490185546876,1.50146484375,34.49889018554688,8.90185484375,34.49889018554688,18.00026484375C34.49889018554688,27.09876484375,27.098490185546876,34.49916484375,17.999990185546874,34.49916484375ZM17.999990185546874,4.50029484375C10.557440185546875,4.50029484375,4.500020185546875,10.55771484375,4.500020185546875,18.00026484375C4.500020185546875,25.44286484375,10.557440185546875,31.50026484375,17.999990185546874,31.50026484375C25.442590185546877,31.50026484375,31.499990185546874,25.44286484375,31.499990185546874,18.00026484375C31.499990185546874,10.55771484375,25.442590185546877,4.50029484375,17.999990185546874,4.50029484375Z" fill="#22C55E" fill-opacity="1"/></g><g><path d="M18.000018935546876,22.50029453125C17.170338935546873,22.50029453125,16.498848935546874,21.82879453125,16.498848935546874,20.99909453125C16.498848935546874,19.11829453125,17.507838935546875,17.42020453125,19.128538935546874,16.56239453125C19.933618935546875,16.13700453125,20.626188935546875,15.14208453125,20.362518935546873,13.88348453125C20.172678935546877,12.97996453125,19.441428935546874,12.24520453125,18.537908935546874,12.05887453125C17.785568935546877,11.90067453125,17.050798935546876,12.07293453125,16.474238935546875,12.54403453125C15.904708935546875,13.00809453125,15.577748935546875,13.69012453125,15.577748935546875,14.42489453125C15.577748935546875,15.25457453125,14.906268935546874,15.926064531249999,14.076578935546875,15.926064531249999C13.246893935546876,15.926064531249999,12.575408935546875,15.25457453125,12.575408935546875,14.42489453125C12.575408935546875,12.78661453125,13.306658935546874,11.25379453125,14.579318935546874,10.21668453125C15.851968935546875,9.18309553125,17.518378935546874,8.78231353125,19.146108935546877,9.12332953125C21.199238935546873,9.55223553125,22.869108935546876,11.21864453125,23.298108935546875,13.27528453125C23.800808935546875,15.68700453125,22.689908935546875,18.077624531250002,20.527748935546875,19.21669453125C19.891418935546874,19.554194531249998,19.494158935546874,20.239694531250002,19.494158935546874,21.00259453125C19.501188935546875,21.82879453125,18.829698935546876,22.50029453125,18.000018935546876,22.50029453125Z" fill="#22C55E" fill-opacity="1"/></g><g><path d="M19.501149814453125,25.499216875Q19.501149814453125,25.572966875,19.493929814453125,25.646356875Q19.486699814453125,25.719746875,19.472309814453126,25.792086875Q19.457919814453124,25.864416875,19.436509814453125,25.934986875Q19.415109814453125,26.005556875,19.386879814453124,26.073686875Q19.358659814453127,26.141826875,19.323899814453124,26.206866875Q19.289129814453126,26.271906875,19.248159814453125,26.333226875Q19.207189814453123,26.394546875,19.160399814453125,26.451546875Q19.113619814453124,26.508556875,19.061469814453126,26.560706875Q19.009319814453125,26.612856875,18.952319814453126,26.659636875Q18.895309814453125,26.706426875,18.833989814453126,26.747396875Q18.772669814453124,26.788366875,18.707629814453124,26.823136875Q18.642589814453125,26.857896875,18.574459814453125,26.886116875Q18.506319814453125,26.914336875,18.435749814453125,26.935746875Q18.365179814453125,26.957156875,18.292849814453124,26.971546875Q18.220519814453127,26.985936875,18.147119814453124,26.993156875Q18.073729814453124,27.000386875,17.999979814453123,27.000386875Q17.926229814453126,27.000386875,17.852839814453127,26.993156875Q17.779449814453123,26.985936875,17.707119814453126,26.971546875Q17.634789814453125,26.957156875,17.564209814453125,26.935746875Q17.493642814453125,26.914336875,17.425507814453127,26.886116875Q17.357373814453126,26.857896875,17.292334814453124,26.823136875Q17.227294814453124,26.788366875,17.165975814453127,26.747396875Q17.104656814453126,26.706426875,17.047648814453126,26.659636875Q16.990640814453126,26.612856875,16.938492814453124,26.560706875Q16.886345814453126,26.508556875,16.839559814453125,26.451546875Q16.792774814453125,26.394546875,16.751802814453125,26.333226875Q16.710830814453125,26.271906875,16.676066814453126,26.206866875Q16.641301814453126,26.141826875,16.613079814453126,26.073686875Q16.584857614453124,26.005556875,16.563449814453126,25.934986875Q16.542041914453126,25.864416875,16.527654414453124,25.792076875Q16.513266914453126,25.719746875,16.506038364453126,25.646356875Q16.498809814453125,25.572966875,16.498809814453125,25.499216875Q16.498809814453125,25.425466875,16.506038364453126,25.352076875Q16.513266914453126,25.278686875,16.527654414453124,25.206356875Q16.542041914453126,25.134026875,16.563449814453126,25.063446875Q16.584857614453124,24.992878875,16.613079814453126,24.924744875000002Q16.641301814453126,24.856610875,16.676066814453126,24.791570875Q16.710830814453125,24.726530875,16.751802814453125,24.665211875Q16.792774814453125,24.603892875,16.839559814453125,24.546884875Q16.886345814453126,24.489876875,16.938492814453124,24.437729875Q16.990640814453126,24.385581875,17.047648814453126,24.338796875Q17.104656814453126,24.292011875,17.165975814453127,24.251039875Q17.227294814453124,24.210067875,17.292334814453124,24.175302875Q17.357373814453126,24.140538875,17.425507814453127,24.112316875Q17.493642814453125,24.084094675,17.564209814453125,24.062686775Q17.634789814453125,24.041278975,17.707119814453126,24.026891475Q17.779449814453123,24.012503975,17.852839814453127,24.005275425Q17.926229814453126,23.998046875,17.999979814453123,23.998046875Q18.073729814453124,23.998046875,18.147119814453124,24.005275425Q18.220519814453127,24.012503975,18.292849814453124,24.026891475Q18.365179814453125,24.041278975,18.435749814453125,24.062686775Q18.506319814453125,24.084094675,18.574459814453125,24.112316875Q18.642589814453125,24.140538875,18.707629814453124,24.175302875Q18.772669814453124,24.210067875,18.833989814453126,24.251039875Q18.895309814453125,24.292011875,18.952319814453126,24.338796875Q19.009319814453125,24.385581875,19.061469814453126,24.437729875Q19.113619814453124,24.489876875,19.160399814453125,24.546884875Q19.207189814453123,24.603892875,19.248159814453125,24.665211875Q19.289129814453126,24.726530875,19.323899814453124,24.791570875Q19.358659814453127,24.856610875,19.386879814453124,24.924744875000002Q19.415109814453125,24.992878875,19.436509814453125,25.063446875Q19.457919814453124,25.134026875,19.472309814453126,25.206356875Q19.486699814453125,25.278686875,19.493929814453125,25.352076875Q19.501149814453125,25.425466875,19.501149814453125,25.499216875Z" fill="#22C55E" fill-opacity="1"/></g></g></svg>