<svg xmlns="http://www.w3.org/2000/svg" xmlns:xlink="http://www.w3.org/1999/xlink" fill="none" version="1.1" width="36" height="36" viewBox="0 0 36 36"><defs><clipPath id="master_svg0_15_2055"><rect x="0" y="0" width="36" height="36" rx="0"/></clipPath></defs><g clip-path="url(#master_svg0_15_2055)"><g><path d="M33.72700703125,17.96628671875Q33.72700703125,18.35248671875,33.70810703125,18.73828671875Q33.68910703125,19.12398671875,33.65130703125,19.50838671875Q33.61340703125,19.89268671875,33.55680703125,20.27468671875Q33.500107031249996,20.65678671875,33.42470703125,21.03558671875Q33.349407031249996,21.41438671875,33.25560703125,21.78898671875Q33.16170703125,22.16358671875,33.049607031250005,22.53318671875Q32.93750703125,22.90278671875,32.80740703125,23.26638671875Q32.677307031249995,23.62998671875,32.52950703125,23.98688671875Q32.38170703125,24.34368671875,32.21660703125,24.69278671875Q32.05140703125,25.04188671875,31.86940703125,25.38248671875Q31.68730703125,25.72308671875,31.48880703125,26.05438671875Q31.29020703125,26.38568671875,31.07560703125,26.70678671875Q30.86110703125,27.02788671875,30.63100703125,27.33808671875Q30.40100703125,27.64828671875,30.15590703125,27.94688671875Q29.91090703125,28.24538671875,29.65160703125,28.53158671875Q29.39220703125,28.81768671875,29.11910703125,29.09078671875Q28.84600703125,29.36388671875,28.55990703125,29.62328671875Q28.27370703125,29.88258671875,27.97520703125,30.12758671875Q27.67660703125,30.37268671875,27.36640703125,30.60268671875Q27.05620703125,30.83278671875,26.73510703125,31.04728671875Q26.41400703125,31.26188671875,26.08270703125,31.46048671875Q25.75140703125,31.65898671875,25.41080703125,31.84108671875Q25.07020703125,32.02308671875,24.72110703125,32.18828671875Q24.37200703125,32.35338671875,24.01520703125,32.50118671875Q23.65830703125,32.648986718749995,23.29470703125,32.77908671875Q22.93110703125,32.90918671875,22.56150703125,33.021286718750005Q22.19190703125,33.13338671875,21.81730703125,33.22728671875Q21.44270703125,33.321086718749996,21.06390703125,33.39638671875Q20.68510703125,33.471786718749996,20.30300703125,33.52848671875Q19.92100703125,33.58508671875,19.53670703125,33.62298671875Q19.15230703125,33.66078671875,18.76660703125,33.67978671875Q18.38080703125,33.69868671875,17.99460703125,33.69868671875Q17.60840703125,33.69868671875,17.22270703125,33.67978671875Q16.83690703125,33.66078671875,16.45260703125,33.62298671875Q16.068207031249997,33.58508671875,15.68620703125,33.52848671875Q15.30420703125,33.471786718749996,14.92540703125,33.39638671875Q14.54660703125,33.321086718749996,14.17200703125,33.22728671875Q13.79730703125,33.13338671875,13.42770703125,33.021286718750005Q13.05820703125,32.90918671875,12.69450703125,32.77908671875Q12.33090703125,32.648986718749995,11.97408703125,32.50118671875Q11.61727703125,32.35338671875,11.26814703125,32.18828671875Q10.91901703125,32.02308671875,10.57841703125,31.84108671875Q10.23780703125,31.65898671875,9.90654703125,31.46048671875Q9.57528703125,31.26188671875,9.25415703125,31.04728671875Q8.933037031249999,30.83278671875,8.62283703125,30.60268671875Q8.312627031249999,30.37268671875,8.01408703125,30.12758671875Q7.71553703125,29.88258671875,7.42937703125,29.62328671875Q7.14321703125,29.36388671875,6.87012703125,29.09078671875Q6.59703703125,28.81768671875,6.33766703125,28.53158671875Q6.0783070312500005,28.24538671875,5.83329703125,27.94688671875Q5.588297031250001,27.64828671875,5.35822703125,27.33808671875Q5.128167031249999,27.02788671875,4.91359703125,26.70678671875Q4.69902703125,26.38568671875,4.50047703125,26.05438671875Q4.30192703125,25.72308671875,4.11986703125,25.38248671875Q3.93781703125,25.04188671875,3.7726870312500003,24.69278671875Q3.60755703125,24.34368671875,3.45976703125,23.98688671875Q3.31196703125,23.62998671875,3.18185903125,23.26638671875Q3.05174903125,22.90278671875,2.93963903125,22.53318671875Q2.82752803125,22.16358671875,2.73368703125,21.78898671875Q2.63984603125,21.41438671875,2.56450003125,21.03558671875Q2.48915403125,20.65678671875,2.43248603125,20.27468671875Q2.37581703125,19.89268671875,2.33796183125,19.50838671875Q2.30010673125,19.12398671875,2.28115633125,18.73828671875Q2.26220595837,18.35248671875,2.26220595837,17.96628671875Q2.26220595837,17.58008671875,2.28115633125,17.19438671875Q2.30010673125,16.80858671875,2.33796183125,16.42428671875Q2.37581703125,16.039886718749997,2.43248603125,15.65788671875Q2.48915403125,15.27588671875,2.56450003125,14.89708671875Q2.63984603125,14.51828671875,2.73368703125,14.14368671875Q2.82752803125,13.76898671875,2.93963903125,13.39938671875Q3.05174903125,13.02988671875,3.18185903125,12.66618671875Q3.31196703125,12.30258671875,3.45976703125,11.94576671875Q3.60755703125,11.58895671875,3.7726870312500003,11.23982671875Q3.93781703125,10.89069671875,4.11986703125,10.55009671875Q4.30192703125,10.20948671875,4.50047703125,9.87822671875Q4.69902703125,9.54696671875,4.91359703125,9.225846718749999Q5.128167031249999,8.904716718749999,5.35822703125,8.59451671875Q5.588297031250001,8.284306718749999,5.83329703125,7.98576671875Q6.0783070312500005,7.68721671875,6.33766703125,7.40105671875Q6.59703703125,7.11489671875,6.87012703125,6.84180671875Q7.14321703125,6.56871671875,7.42937703125,6.30935671875Q7.71553703125,6.0499867187500005,8.01408703125,5.80497671875Q8.312627031249999,5.559976718750001,8.62283703125,5.32990671875Q8.933037031249999,5.099846718749999,9.25415703125,4.88527671875Q9.57528703125,4.67070671875,9.90654703125,4.47215671875Q10.23780703125,4.27360671875,10.57841703125,4.09154671875Q10.91901703125,3.90949671875,11.26814703125,3.7443667187500003Q11.61727703125,3.57924671875,11.97408703125,3.43144671875Q12.33090703125,3.28364671875,12.69450703125,3.1535397187500003Q13.05820703125,3.02342971875,13.42770703125,2.9113197187499997Q13.79730703125,2.79920871875,14.17200703125,2.70536771875Q14.54660703125,2.61152671875,14.92540703125,2.53618071875Q15.30420703125,2.46083471875,15.68620703125,2.40416671875Q16.068207031249997,2.34749771875,16.45260703125,2.30964261875Q16.83690703125,2.27178751875,17.22270703125,2.25283711875Q17.60840703125,2.23388671875,17.99460703125,2.23388671875Q18.38080703125,2.23388671875,18.76660703125,2.25283711875Q19.15230703125,2.27178751875,19.53670703125,2.30964261875Q19.92100703125,2.34749771875,20.30300703125,2.40416671875Q20.68510703125,2.46083471875,21.06390703125,2.53618071875Q21.44270703125,2.61152671875,21.81730703125,2.70536771875Q22.19190703125,2.79920871875,22.56150703125,2.9113197187499997Q22.93110703125,3.02342971875,23.29470703125,3.1535397187500003Q23.65830703125,3.28364671875,24.01520703125,3.43144671875Q24.37200703125,3.57924671875,24.72110703125,3.7443667187500003Q25.07020703125,3.90949671875,25.41080703125,4.09154671875Q25.75140703125,4.27360671875,26.08270703125,4.47215671875Q26.41400703125,4.67070671875,26.73510703125,4.88527671875Q27.05620703125,5.099846718749999,27.36640703125,5.32990671875Q27.67660703125,5.559976718750001,27.97520703125,5.8049867187499995Q28.27370703125,6.0499867187500005,28.55990703125,6.30935671875Q28.84600703125,6.56871671875,29.11910703125,6.84180671875Q29.39220703125,7.11489671875,29.65160703125,7.40105671875Q29.91090703125,7.68721671875,30.15590703125,7.98576671875Q30.40100703125,8.284306718749999,30.63100703125,8.59451671875Q30.86110703125,8.904716718749999,31.07560703125,9.225846718749999Q31.29020703125,9.54696671875,31.48880703125,9.87822671875Q31.68730703125,10.20948671875,31.86940703125,10.55009671875Q32.05140703125,10.89069671875,32.21660703125,11.23982671875Q32.38170703125,11.58895671875,32.52950703125,11.94576671875Q32.677307031249995,12.30258671875,32.80740703125,12.66618671875Q32.93750703125,13.02988671875,33.049607031250005,13.39938671875Q33.16170703125,13.76898671875,33.25560703125,14.14368671875Q33.349407031249996,14.51828671875,33.42470703125,14.89708671875Q33.500107031249996,15.27588671875,33.55680703125,15.65788671875Q33.61340703125,16.039886718749997,33.65130703125,16.42428671875Q33.68910703125,16.80858671875,33.70810703125,17.19438671875Q33.72700703125,17.58008671875,33.72700703125,17.96628671875Z" fill="#F3BA2F" fill-opacity="1" style="mix-blend-mode:passthrough"/></g><g><path d="M15.182373046875,17.966341015624998L17.994173046874998,15.154541015625L20.805963046875,17.966341015624998L17.994173046874998,20.778131015625L15.182373046875,17.966341015624998Z" fill="#FFFFFF" fill-opacity="1" style="mix-blend-mode:passthrough"/></g><g><path d="M15.1825709375,8.743684765625L10.571480937499999,13.354774765624999L13.3832709375,16.166884765625L17.9947609375,11.555474765625L22.6058609375,16.166884765625L25.4175609375,13.354774765624999L20.806560937500002,8.743684765625L17.9947609375,5.931884765625L15.1825709375,8.743684765625ZM20.806560937500002,27.188784765625L25.4175609375,22.577284765625L22.6058609375,19.765484765625L17.9947609375,24.376584765625L13.3832709375,19.765484765625L10.571480937499999,22.577284765625L15.1825709375,27.188784765625L17.9947609375,30.000584765625L20.806560937500002,27.188784765625ZM5.9599609375,17.966084765625L8.7717609375,15.154284765625L11.5835509375,17.966084765625L8.7717609375,20.777884765625L5.9599609375,17.966084765625ZM24.4048609375,17.966184765625L27.2166609375,15.154354765625L30.0284609375,17.966184765625L27.2166609375,20.777984765625L24.4048609375,17.966184765625Z" fill="#FFFFFF" fill-opacity="1" style="mix-blend-mode:passthrough"/></g></g></svg>