<svg xmlns="http://www.w3.org/2000/svg" xmlns:xlink="http://www.w3.org/1999/xlink" fill="none" version="1.1" width="18" height="18" viewBox="0 0 18 18"><defs><clipPath id="master_svg0_297_62862"><rect x="0" y="0" width="18" height="18" rx="0"/></clipPath></defs><g clip-path="url(#master_svg0_297_62862)"><g><path d="M7.0802709375,5.2626996875L6.5828109375,5.2626996875L6.5828109375,4.7634766875C6.5828109375,4.2923826875,6.2013709375,3.9091796875,5.728510937499999,3.9091796875C5.2556609375,3.9091796875,4.8742209375000005,4.2906246875,4.8742209375000005,4.7634766875L4.8742209375000005,5.2626996875L4.3767579375,5.2626996875C3.9056639375,5.2626996875,3.5224609375,5.6441396875,3.5224609375,6.1169896875C3.5224609375,6.5880896875,3.9039059375,6.9712896875000006,4.3767579375,6.9712896875000006L4.8759809375,6.9712896875000006L4.8759809375,7.4687496875C4.8759809375,7.9398396875,5.2574209375,8.3230496875,5.7302709375,8.3230496875C6.2031209375,8.3230496875,6.5845709375000006,7.9415996875,6.5845709375000006,7.4687496875L6.5845709375000006,6.9712896875000006L7.0820309375,6.9712896875000006C7.5531209375,6.9712896875000006,7.9363309375,6.5898396875,7.9363309375,6.1169896875C7.9345709375,5.6441396875,7.5513709375,5.2626996875,7.0802709375,5.2626996875ZM13.6228609375,5.2626996875L10.9193409375,5.2626996875C10.4482409375,5.2626996875,10.065040937500001,5.6441396875,10.065040937500001,6.1169896875C10.065040937500001,6.5880896875,10.446480937499999,6.9712896875000006,10.9193409375,6.9712896875000006L13.6228609375,6.9712896875000006C14.0939609375,6.9712896875000006,14.4771609375,6.5898396875,14.4771609375,6.1169896875C14.4771609375,5.6441396875,14.0939609375,5.2626996875,13.6228609375,5.2626996875ZM13.4892609375,10.3515596875L11.052930937500001,10.3515596875C10.5818409375,10.3515596875,10.198630937499999,10.733009687500001,10.198630937499999,11.2058596875C10.198630937499999,11.6787096875,10.5818409375,12.0583996875,11.052930937500001,12.0583996875L13.4892609375,12.0583996875C13.9603609375,12.0583996875,14.3435609375,11.676949687499999,14.3435609375,11.204099687500001C14.3435609375,10.7312496875,13.9603609375,10.3515596875,13.4892609375,10.3515596875ZM13.4892609375,12.2113296875L11.052930937500001,12.2113296875C10.5818409375,12.2113296875,10.198630937499999,12.5927696875,10.198630937499999,13.0656296875C10.198630937499999,13.5384796875,10.5800809375,13.9198796875,11.052930937500001,13.9198796875L13.4892609375,13.9198796875C13.9603609375,13.9198796875,14.3435609375,13.5384796875,14.3435609375,13.0656296875C14.3435609375,12.5927696875,13.9603609375,12.2113296875,13.4892609375,12.2113296875ZM7.4318309375,10.4306596875C7.0978509375000005,10.0966796875,6.5582009375000005,10.0966796875,6.2242209375,10.4306596875L5.7267609375,10.9281296875L5.2293009375,10.4306596875C4.8953109375,10.0966796875,4.3556639375,10.0966796875,4.0216799375,10.4306596875C3.6876959375,10.7646496875,3.6876959375,11.3042996875,4.0216799375,11.638279687499999L4.5191409375,12.1357396875L4.0251949375,12.6314496875C3.6912109375,12.9654296875,3.6912109375,13.5050796875,4.0251949375,13.8390596875C4.1921879375,14.0060796875,4.4101559375,14.0886796875,4.6281209375,14.0886796875C4.8460909375,14.0886796875,5.0640609375,14.0060796875,5.2310509375,13.8390596875L5.728510937499999,13.3415996875L6.2259709375,13.8390596875C6.3929709374999995,14.0060796875,6.610940937500001,14.0886796875,6.8289009375,14.0886796875C7.0468709375,14.0886796875,7.2648409375,14.0060796875,7.4318309375,13.8390596875C7.7658209375,13.5050796875,7.7658209375,12.9654296875,7.4318309375,12.6314496875L6.934370937500001,12.1339896875L7.4318309375,11.6365196875C7.7658209375,11.3042996875,7.7658209375,10.7646496875,7.4318309375,10.4306596875Z" fill="#22C55E" fill-opacity="1"/></g><g><path d="M12.7828,0L5.21367,0C2.34668,0.00878906,0.00878906,2.34844,0,5.21719L0,12.7863C0.00878906,15.6533,2.34668,17.9912,5.21719,18L12.7863,18C15.6533,17.9912,17.993,15.6516,18,12.7828L18,5.21367C17.9912,2.34844,15.6533,0.00878906,12.7828,0ZM16.2932,12.7811C16.2879,14.7111,14.7111,16.2879,12.7828,16.2932L5.21895,16.2932C3.28711,16.2879,1.71211,14.7111,1.70684,12.7828L1.70684,5.21895C1.71211,3.28887,3.28711,1.71387,5.21895,1.70684L12.7811,1.70684C14.7129,1.71211,16.2879,3.28887,16.2932,5.21719L16.2932,12.7811Z" fill="#22C55E" fill-opacity="1"/></g></g></svg>