<svg xmlns="http://www.w3.org/2000/svg" xmlns:xlink="http://www.w3.org/1999/xlink" fill="none" version="1.1" width="80" height="80" viewBox="0 0 80 80"><defs><clipPath id="master_svg0_35_73947"><rect x="19.75" y="22" width="40.5" height="36" rx="0"/></clipPath></defs><g><rect x="0" y="0" width="80" height="80" rx="40" fill="#3B82F6" fill-opacity="0.10000000149011612" style="mix-blend-mode:passthrough"/><g><rect x="19.75" y="12" width="40.5" height="56" rx="0" fill="#000000" fill-opacity="0" style="mix-blend-mode:passthrough"/><g clip-path="url(#master_svg0_35_73947)"><g transform="matrix(1,0,0,-1,0,117.54685974121094)"><g><path d="M41.681912492549415,93.08592987060547L41.681912492549415,92.31252987060546L41.681912492549415,93.08592987060547L41.681912492549415,92.31252987060546Q42.38261249254942,92.24212987060547,42.94311249254942,92.03122987060547Q44.41461249254942,91.53902987060548,44.13431249254942,89.99212987060547Q43.643812492549415,88.51562987060547,42.102312492549416,88.79682987060546Q40.91111249254942,89.14842987060547,40.00021249254942,89.14842987060547Q39.15941249254942,89.14842987060547,38.59881249254942,88.79682987060546Q38.38861249254942,88.65622987060547,38.38861249254942,88.58592987060547Q38.31861249254942,88.58592987060547,38.31861249254942,88.44532987060546Q38.31861249254942,88.37502987060547,38.31861249254942,88.37502987060547Q38.31861249254942,88.30462987060547,38.52881249254942,88.16402987060548Q39.15941249254942,87.88282987060546,40.49071249254942,87.46092987060547L40.56081249254942,87.46092987060547Q41.82201249254942,87.17962987060547,43.15331249254942,86.40622987060547Q44.835012492549424,85.49222987060547,45.045212492549425,83.24222987060547Q44.90511249254942,80.85152987060548,43.15331249254942,79.79682987060546Q42.45271249254942,79.37502987060547,41.681912492549415,79.23432987060546L41.681912492549415,78.46092987060547Q41.54181249254942,76.91402987060548,40.00021249254942,76.77342987060547Q38.458712492549424,76.91402987060548,38.31861249254942,78.46092987060547L38.31861249254942,79.23432987060546Q37.33761249254942,79.51562987060547,36.63691249254942,79.79682987060546Q36.56681249254942,79.79682987060546,36.496812492549424,79.79682987060546Q36.42671249254942,79.86712987060547,36.35661249254942,79.86712987060547Q36.21651249254942,79.93752987060547,36.07641249254942,79.93752987060547Q34.67501249254942,80.57032987060546,35.02531249254942,82.11722987060547Q35.65591249254942,83.52342987060547,37.12741249254942,83.17182987060546Q37.267512492549415,83.10152987060548,37.40771249254942,83.10152987060548Q37.54781249254942,83.03122987060547,37.687912492549415,82.96092987060547Q39.01931249254942,82.46872987060547,40.07031249254942,82.39842987060547Q40.91111249254942,82.39842987060547,41.40161249254942,82.67962987060547Q41.61181249254942,82.82032987060546,41.61181249254942,82.89062987060547Q41.681912492549415,82.96092987060547,41.681912492549415,83.17182987060546Q41.75201249254942,83.24222987060547,41.40161249254942,83.52342987060547Q40.84111249254942,83.87502987060547,39.50971249254942,84.22652987060548L39.36961249254942,84.29682987060546Q38.10841249254942,84.57812987060547,36.77701249254942,85.28122987060547Q35.16551249254942,86.12502987060547,34.95521249254942,88.37502987060547Q35.16551249254942,90.83592987060547,36.917212492549424,91.75002987060546Q37.54781249254942,92.10152987060548,38.31861249254942,92.31252987060546L38.31861249254942,93.08592987060547Q38.458712492549424,94.63282987060546,40.00021249254942,94.77342987060547Q41.54181249254942,94.63282987060546,41.681912492549415,93.08592987060547ZM59.61961249254942,71.14842987060547Q60.32031249254942,70.16402987060548,60.18021249254942,69.03902987060548Q59.97001249254942,67.91404987060547,59.05911249254942,67.21092987060547L50.16031249254942,60.60154987060547Q47.637812492549415,58.77342987060547,44.48471249254942,58.77342987060547L33.27361249254942,58.77342987060547L22.06252249254942,58.77342987060547Q21.08156249254942,58.77342987060547,20.45093549254942,59.40624187060547Q19.82031249254942,60.03904987060547,19.82031249254942,61.02342987060547L19.82031249254942,65.52342987060547Q19.82031249254942,66.50779987060547,20.45093549254942,67.14061987060546Q21.08156249254942,67.77342987060547,22.06252249254942,67.77342987060547L24.65508249254942,67.77342987060547L27.80820249254942,70.30462987060547Q30.26061249254942,72.27342987060547,33.41371249254942,72.27342987060547L38.879112492549424,72.27342987060547L44.48471249254942,72.27342987060547Q45.46561249254942,72.27342987060547,46.096312492549416,71.64062987060547Q46.72691249254942,71.00782987060546,46.72691249254942,70.02342987060547Q46.72691249254942,69.03902987060548,46.096312492549416,68.40623987060548Q45.46561249254942,67.77342987060547,44.48471249254942,67.77342987060547L40.00021249254942,67.77342987060547L38.879112492549424,67.77342987060547Q37.82811249254942,67.70311987060546,37.75801249254942,66.64842987060547Q37.82811249254942,65.59373987060548,38.879112492549424,65.52342987060547L47.35751249254942,65.52342987060547L55.69571249254942,71.71092987060547Q56.67671249254942,72.41402987060548,57.79781249254942,72.27342987060547Q58.91891249254942,72.06252987060547,59.61961249254942,71.14842987060547ZM33.41371249254942,67.77342987060547L33.34371249254942,67.77342987060547L33.41371249254942,67.77342987060547Z" fill="#3B82F6" fill-opacity="1" style="mix-blend-mode:passthrough"/></g></g></g></g></g></svg>