<svg xmlns="http://www.w3.org/2000/svg" xmlns:xlink="http://www.w3.org/1999/xlink" fill="none" version="1.1" width="33.7919921875" height="33.7919921875" viewBox="0 0 33.7919921875 33.7919921875"><defs><clipPath id="master_svg0_88_02106"><rect x="7.65576171875" y="9.50390625" width="18.479999542236328" height="14.784000396728516" rx="0"/></clipPath></defs><g><rect x="0" y="0" width="33.79199981689453" height="33.79199981689453" rx="16.895999908447266" fill="#F3F4F6" fill-opacity="1" style="mix-blend-mode:passthrough"/><g clip-path="url(#master_svg0_88_02106)"><g transform="matrix(1,0,0,-1,0,47.4208984375)"><g><path d="M22.52741112060547,35.54914921875Q22.49701112060547,35.578049218749996,22.49701112060547,35.578049218749996Q20.73121112060547,36.32884921875,18.843611120605466,36.64644921875Q18.81321112060547,36.64644921875,18.78271112060547,36.61754921875Q18.53921112060547,36.184449218750004,18.326111120605468,35.72244921875Q16.286261120605467,36.04004921875,14.246461120605469,35.72244921875Q14.033341120605469,36.184449218750004,13.789791120605468,36.61754921875Q13.75934112060547,36.64644921875,13.72890112060547,36.64644921875Q11.841321120605468,36.32884921875,10.075521120605469,35.578049218749996L10.045071120605469,35.54914921875Q8.340161120605469,33.094819218750004,7.731269120605469,30.66931921875Q7.152818120605469,28.27269921875,7.396376520605469,25.90494921875Q7.426821120605469,25.87606921875,7.426821120605469,25.84719921875Q9.466621120605469,24.43232421875,11.902211120605468,23.71044921875Q11.932651120605469,23.71044921875,11.963101120605469,23.73932421875Q12.480661120605468,24.40344921875,12.876441120605469,25.15419921875L12.876441120605469,25.18306921875Q12.876441120605469,25.21194921875,12.846001120605468,25.21194921875Q12.115321120605469,25.47181921875,11.44554112060547,25.84719921875Q11.415091120605469,25.87606921875,11.415091120605469,25.90494921875Q11.415091120605469,25.93382921875,11.44554112060547,25.93382921875Q11.597761120605469,26.04931921875,11.71954112060547,26.13594921875Q11.749981120605469,26.16481921875,11.780431120605469,26.16481921875Q14.002901120605468,25.21194921875,16.286261120605467,25.21194921875Q18.60011112060547,25.21194921875,20.79211112060547,26.16481921875Q20.82251112060547,26.16481921875,20.82251112060547,26.13594921875Q20.97481112060547,26.04931921875,21.127011120605466,25.93382921875L21.127011120605466,25.90494921875Q21.127011120605466,25.87606921875,21.09651112060547,25.84719921875Q20.426711120605468,25.47181921875,19.72651112060547,25.21194921875Q19.69611112060547,25.21194921875,19.66561112060547,25.18306921875Q19.66561112060547,25.15419921875,19.69611112060547,25.15419921875Q20.091911120605467,24.40344921875,20.60941112060547,23.73932421875Q20.60941112060547,23.71044921875,20.67031112060547,23.71044921875Q23.07541112060547,24.43232421875,25.14571112060547,25.84719921875Q25.14571112060547,25.87606921875,25.14571112060547,25.90494921875Q25.632811120605467,31.36231921875,22.52741112060547,35.54914921875ZM13.302671120605469,27.81069921875Q12.632881120605468,27.83956921875,12.176211120605469,28.33044921875Q11.71954112060547,28.82131921875,11.71954112060547,29.54319921875Q11.71954112060547,30.26506921875,12.176211120605469,30.75594921875Q12.632881120605468,31.21794921875,13.302671120605469,31.246819218749998Q14.002901120605468,31.21794921875,14.45957112060547,30.72706921875Q14.91624112060547,30.26506921875,14.91624112060547,29.54319921875Q14.91624112060547,28.82131921875,14.45957112060547,28.33044921875Q14.002901120605468,27.83956921875,13.302671120605469,27.81069921875ZM19.269811120605468,27.81069921875Q18.60011112060547,27.83956921875,18.14341112060547,28.33044921875Q17.68671112060547,28.82131921875,17.65631112060547,29.54319921875Q17.68671112060547,30.26506921875,18.112911120605467,30.75594921875Q18.56961112060547,31.21794921875,19.269811120605468,31.246819218749998Q19.970111120605466,31.21794921875,20.426711120605468,30.72706921875Q20.85301112060547,30.26506921875,20.88341112060547,29.54319921875Q20.85301112060547,28.82131921875,20.396311120605468,28.33044921875Q19.970111120605466,27.83956921875,19.269811120605468,27.81069921875Z" fill="#4B5563" fill-opacity="1" style="mix-blend-mode:passthrough"/></g></g></g></g></svg>
