<svg xmlns="http://www.w3.org/2000/svg" xmlns:xlink="http://www.w3.org/1999/xlink" fill="none" version="1.1" width="54" height="54" viewBox="0 0 54 54"><defs><filter id="master_svg0_88_48384/88_34519" filterUnits="objectBoundingBox" color-interpolation-filters="sRGB" x="-0.08333333333333333" y="-0.0625" width="1.1666666666666667" height="1.1666666666666667"><feFlood flood-opacity="0" result="BackgroundImageFix"/><feColorMatrix in="SourceAlpha" type="matrix" values="0 0 0 0 0 0 0 0 0 0 0 0 0 0 0 0 0 0 127 0"/><feOffset dy="1" dx="0"/><feGaussianBlur stdDeviation="1"/><feColorMatrix type="matrix" values="0 0 0 0 0.062745101749897 0 0 0 0 0.0941176488995552 0 0 0 0 0.1568627506494522 0 0 0 0.05000000074505806 0"/><feBlend mode="normal" in2="BackgroundImageFix" result="effect1_dropShadow"/><feBlend mode="normal" in="SourceGraphic" in2="effect1_dropShadow" result="shape"/></filter><clipPath id="master_svg1_88_48384/88_34519/8_00341"><rect x="15" y="14" width="24" height="24" rx="0"/></clipPath></defs><g filter="url(#master_svg0_88_48384/88_34519)"><rect x="3" y="2" width="48" height="48" rx="10" fill="#FFFFFF" fill-opacity="1"/><rect x="3.5" y="2.5" width="47" height="47" rx="9.5" fill-opacity="0" stroke-opacity="1" stroke="#EAECF0" fill="none" stroke-width="1"/><g clip-path="url(#master_svg1_88_48384/88_34519/8_00341)"><g><path d="M18.5,36C18.5,36.5523,18.94772,37,19.5,37C20.05228,37,20.5,36.5523,20.5,36C20.5,36,18.5,36,18.5,36C18.5,36,18.5,36,18.5,36ZM20.5,31C20.5,30.447699999999998,20.05228,30,19.5,30C18.94772,30,18.5,30.447699999999998,18.5,31C18.5,31,20.5,31,20.5,31C20.5,31,20.5,31,20.5,31ZM18.5,21C18.5,21.55228,18.94772,22,19.5,22C20.05228,22,20.5,21.55228,20.5,21C20.5,21,18.5,21,18.5,21C18.5,21,18.5,21,18.5,21ZM20.5,16C20.5,15.447715,20.05228,15,19.5,15C18.94772,15,18.5,15.447715,18.5,16C18.5,16,20.5,16,20.5,16C20.5,16,20.5,16,20.5,16ZM17,17.5C16.447715,17.5,16,17.94772,16,18.5C16,19.05228,16.447715,19.5,17,19.5C17,19.5,17,17.5,17,17.5C17,17.5,17,17.5,17,17.5ZM22,19.5C22.55228,19.5,23,19.05228,23,18.5C23,17.94772,22.55228,17.5,22,17.5C22,17.5,22,19.5,22,19.5C22,19.5,22,19.5,22,19.5ZM17,32.5C16.447715,32.5,16,32.9477,16,33.5C16,34.0523,16.447715,34.5,17,34.5C17,34.5,17,32.5,17,32.5C17,32.5,17,32.5,17,32.5ZM22,34.5C22.55228,34.5,23,34.0523,23,33.5C23,32.9477,22.55228,32.5,22,32.5C22,32.5,22,34.5,22,34.5C22,34.5,22,34.5,22,34.5ZM28,17C28,17,28.9333,16.64102,28.9333,16.64102C28.7848,16.25483,28.413800000000002,16,28,16C27.586199999999998,16,27.2152,16.25483,27.0667,16.64102C27.0667,16.64102,28,17,28,17C28,17,28,17,28,17ZM37,26C37,26,37.359,26.9333,37.359,26.9333C37.7452,26.7848,38,26.413800000000002,38,26C38,25.586199999999998,37.7452,25.2152,37.359,25.0667C37.359,25.0667,37,26,37,26C37,26,37,26,37,26ZM28,35C28,35,27.0667,35.359,27.0667,35.359C27.2152,35.7452,27.586199999999998,36,28,36C28.413800000000002,36,28.7848,35.7452,28.9333,35.359C28.9333,35.359,28,35,28,35C28,35,28,35,28,35ZM19,26C19,26,18.64102,25.0667,18.64102,25.0667C18.25483,25.2152,18,25.586199999999998,18,26C18,26.413800000000002,18.25483,26.7848,18.64102,26.9333C18.64102,26.9333,19,26,19,26C19,26,19,26,19,26ZM32.4911,27.7342C32.4911,27.7342,32.1322,26.800800000000002,32.1322,26.800800000000002C32.1322,26.800800000000002,32.1322,26.800800000000002,32.1322,26.800800000000002C32.1322,26.800800000000002,32.4911,27.7342,32.4911,27.7342C32.4911,27.7342,32.4911,27.7342,32.4911,27.7342ZM31.082900000000002,28.3765C31.082900000000002,28.3765,30.5034,27.561500000000002,30.5034,27.561500000000002C30.5034,27.561500000000002,31.082900000000002,28.3765,31.082900000000002,28.3765C31.082900000000002,28.3765,31.082900000000002,28.3765,31.082900000000002,28.3765ZM29.7342,30.4911C29.7342,30.4911,28.800800000000002,30.132199999999997,28.800800000000002,30.132199999999997C28.800800000000002,30.132199999999997,28.800800000000002,30.132199999999997,28.800800000000002,30.132199999999997C28.800800000000002,30.132199999999997,29.7342,30.4911,29.7342,30.4911C29.7342,30.4911,29.7342,30.4911,29.7342,30.4911ZM30.3765,29.082900000000002C30.3765,29.082900000000002,29.561500000000002,28.5034,29.561500000000002,28.5034C29.561500000000002,28.5034,30.3765,29.082900000000002,30.3765,29.082900000000002C30.3765,29.082900000000002,30.3765,29.082900000000002,30.3765,29.082900000000002ZM29.7342,21.50886C29.7342,21.50886,28.800800000000002,21.86784,28.800800000000002,21.86784C28.800800000000002,21.86784,28.800800000000002,21.86784,28.800800000000002,21.86784C28.800800000000002,21.86784,29.7342,21.50886,29.7342,21.50886C29.7342,21.50886,29.7342,21.50886,29.7342,21.50886ZM30.3765,22.91709C30.3765,22.91709,29.561500000000002,23.49658,29.561500000000002,23.49658C29.561500000000002,23.49658,30.3765,22.91709,30.3765,22.91709C30.3765,22.91709,30.3765,22.91709,30.3765,22.91709ZM32.4911,24.265819999999998C32.4911,24.265819999999998,32.8501,23.33248,32.8501,23.33248C32.8501,23.33248,32.8501,23.33248,32.8501,23.33248C32.8501,23.33248,32.4911,24.265819999999998,32.4911,24.265819999999998C32.4911,24.265819999999998,32.4911,24.265819999999998,32.4911,24.265819999999998ZM31.082900000000002,23.623530000000002C31.082900000000002,23.623530000000002,30.5034,24.43851,30.5034,24.43851C30.5034,24.43851,30.5034,24.43851,30.5034,24.43851C30.5034,24.43851,31.082900000000002,23.623530000000002,31.082900000000002,23.623530000000002C31.082900000000002,23.623530000000002,31.082900000000002,23.623530000000002,31.082900000000002,23.623530000000002ZM23.50886,24.265819999999998C23.50886,24.265819999999998,23.14988,23.33248,23.14988,23.33248C23.14988,23.33248,23.14988,23.33248,23.14988,23.33248C23.14988,23.33248,23.50886,24.265819999999998,23.50886,24.265819999999998C23.50886,24.265819999999998,23.50886,24.265819999999998,23.50886,24.265819999999998ZM24.91709,23.623530000000002C24.91709,23.623530000000002,24.33759,22.80855,24.33759,22.80855C24.33759,22.80855,24.91709,23.623530000000002,24.91709,23.623530000000002C24.91709,23.623530000000002,24.91709,23.623530000000002,24.91709,23.623530000000002ZM26.2658,21.50886C26.2658,21.50886,25.33248,21.14988,25.33248,21.14988C25.33248,21.14988,26.2658,21.50886,26.2658,21.50886C26.2658,21.50886,26.2658,21.50886,26.2658,21.50886ZM25.623530000000002,22.91709C25.623530000000002,22.91709,26.438499999999998,23.49658,26.438499999999998,23.49658C26.438499999999998,23.49658,26.438499999999998,23.49658,26.438499999999998,23.49658C26.438499999999998,23.49658,25.623530000000002,22.91709,25.623530000000002,22.91709C25.623530000000002,22.91709,25.623530000000002,22.91709,25.623530000000002,22.91709ZM26.2658,30.4911C26.2658,30.4911,25.33248,30.850099999999998,25.33248,30.850099999999998C25.33248,30.850099999999998,25.33248,30.850099999999998,25.33248,30.850099999999998C25.33248,30.850099999999998,26.2658,30.4911,26.2658,30.4911C26.2658,30.4911,26.2658,30.4911,26.2658,30.4911ZM25.623530000000002,29.082900000000002C25.623530000000002,29.082900000000002,26.438499999999998,28.5034,26.438499999999998,28.5034C26.438499999999998,28.5034,25.623530000000002,29.082900000000002,25.623530000000002,29.082900000000002C25.623530000000002,29.082900000000002,25.623530000000002,29.082900000000002,25.623530000000002,29.082900000000002ZM23.50886,27.7342C23.50886,27.7342,23.86784,26.800800000000002,23.86784,26.800800000000002C23.86784,26.800800000000002,23.86784,26.800800000000002,23.86784,26.800800000000002C23.86784,26.800800000000002,23.50886,27.7342,23.50886,27.7342C23.50886,27.7342,23.50886,27.7342,23.50886,27.7342ZM24.91709,28.3765C24.91709,28.3765,25.49658,27.561500000000002,25.49658,27.561500000000002C25.49658,27.561500000000002,25.49658,27.561500000000002,25.49658,27.561500000000002C25.49658,27.561500000000002,24.91709,28.3765,24.91709,28.3765C24.91709,28.3765,24.91709,28.3765,24.91709,28.3765ZM20.5,36C20.5,36,20.5,31,20.5,31C20.5,31,18.5,31,18.5,31C18.5,31,18.5,36,18.5,36C18.5,36,20.5,36,20.5,36C20.5,36,20.5,36,20.5,36ZM20.5,21C20.5,21,20.5,16,20.5,16C20.5,16,18.5,16,18.5,16C18.5,16,18.5,21,18.5,21C18.5,21,20.5,21,20.5,21C20.5,21,20.5,21,20.5,21ZM17,19.5C17,19.5,22,19.5,22,19.5C22,19.5,22,17.5,22,17.5C22,17.5,17,17.5,17,17.5C17,17.5,17,19.5,17,19.5C17,19.5,17,19.5,17,19.5ZM17,34.5C17,34.5,22,34.5,22,34.5C22,34.5,22,32.5,22,32.5C22,32.5,17,32.5,17,32.5C17,32.5,17,34.5,17,34.5C17,34.5,17,34.5,17,34.5ZM28.9333,34.641C28.9333,34.641,27.199199999999998,30.132199999999997,27.199199999999998,30.132199999999997C27.199199999999998,30.132199999999997,25.33248,30.850099999999998,25.33248,30.850099999999998C25.33248,30.850099999999998,27.0667,35.359,27.0667,35.359C27.0667,35.359,28.9333,34.641,28.9333,34.641C28.9333,34.641,28.9333,34.641,28.9333,34.641ZM23.86784,26.800800000000002C23.86784,26.800800000000002,19.35898,25.0667,19.35898,25.0667C19.35898,25.0667,18.64102,26.9333,18.64102,26.9333C18.64102,26.9333,23.14988,28.6675,23.14988,28.6675C23.14988,28.6675,23.86784,26.800800000000002,23.86784,26.800800000000002C23.86784,26.800800000000002,23.86784,26.800800000000002,23.86784,26.800800000000002ZM19.35898,26.9333C19.35898,26.9333,23.86784,25.199199999999998,23.86784,25.199199999999998C23.86784,25.199199999999998,23.14988,23.33248,23.14988,23.33248C23.14988,23.33248,18.64102,25.0667,18.64102,25.0667C18.64102,25.0667,19.35898,26.9333,19.35898,26.9333C19.35898,26.9333,19.35898,26.9333,19.35898,26.9333ZM27.199199999999998,21.86784C27.199199999999998,21.86784,28.9333,17.35898,28.9333,17.35898C28.9333,17.35898,27.0667,16.64102,27.0667,16.64102C27.0667,16.64102,25.33248,21.14988,25.33248,21.14988C25.33248,21.14988,27.199199999999998,21.86784,27.199199999999998,21.86784C27.199199999999998,21.86784,27.199199999999998,21.86784,27.199199999999998,21.86784ZM27.0667,17.35898C27.0667,17.35898,28.800800000000002,21.86784,28.800800000000002,21.86784C28.800800000000002,21.86784,30.6675,21.14988,30.6675,21.14988C30.6675,21.14988,28.9333,16.64102,28.9333,16.64102C28.9333,16.64102,27.0667,17.35898,27.0667,17.35898C27.0667,17.35898,27.0667,17.35898,27.0667,17.35898ZM32.1322,25.199199999999998C32.1322,25.199199999999998,36.641,26.9333,36.641,26.9333C36.641,26.9333,37.359,25.0667,37.359,25.0667C37.359,25.0667,32.8501,23.33248,32.8501,23.33248C32.8501,23.33248,32.1322,25.199199999999998,32.1322,25.199199999999998C32.1322,25.199199999999998,32.1322,25.199199999999998,32.1322,25.199199999999998ZM36.641,25.0667C36.641,25.0667,32.1322,26.800800000000002,32.1322,26.800800000000002C32.1322,26.800800000000002,32.8501,28.6675,32.8501,28.6675C32.8501,28.6675,37.359,26.9333,37.359,26.9333C37.359,26.9333,36.641,25.0667,36.641,25.0667C36.641,25.0667,36.641,25.0667,36.641,25.0667ZM28.800800000000002,30.132199999999997C28.800800000000002,30.132199999999997,27.0667,34.641,27.0667,34.641C27.0667,34.641,28.9333,35.359,28.9333,35.359C28.9333,35.359,30.6675,30.850099999999998,30.6675,30.850099999999998C30.6675,30.850099999999998,28.800800000000002,30.132199999999997,28.800800000000002,30.132199999999997C28.800800000000002,30.132199999999997,28.800800000000002,30.132199999999997,28.800800000000002,30.132199999999997ZM32.1322,26.800800000000002C31.4467,27.064500000000002,30.9386,27.2521,30.5034,27.561500000000002C30.5034,27.561500000000002,31.662399999999998,29.1914,31.662399999999998,29.1914C31.844,29.0623,32.0691,28.9679,32.8501,28.6675C32.8501,28.6675,32.1322,26.800800000000002,32.1322,26.800800000000002C32.1322,26.800800000000002,32.1322,26.800800000000002,32.1322,26.800800000000002ZM30.6675,30.850099999999998C30.9679,30.0691,31.0623,29.844,31.1914,29.662399999999998C31.1914,29.662399999999998,29.561500000000002,28.5034,29.561500000000002,28.5034C29.2521,28.9386,29.064500000000002,29.4467,28.800800000000002,30.132199999999997C28.800800000000002,30.132199999999997,30.6675,30.850099999999998,30.6675,30.850099999999998C30.6675,30.850099999999998,30.6675,30.850099999999998,30.6675,30.850099999999998ZM30.5034,27.561500000000002C30.139,27.8206,29.8206,28.139,29.561500000000002,28.5034C29.561500000000002,28.5034,31.1914,29.662399999999998,31.1914,29.662399999999998C31.320999999999998,29.4802,31.4802,29.320999999999998,31.662399999999998,29.1914C31.662399999999998,29.1914,30.5034,27.561500000000002,30.5034,27.561500000000002C30.5034,27.561500000000002,30.5034,27.561500000000002,30.5034,27.561500000000002ZM28.800800000000002,21.86784C29.064500000000002,22.55326,29.2521,23.06142,29.561500000000002,23.49658C29.561500000000002,23.49658,31.1914,22.33759,31.1914,22.33759C31.0623,22.156,30.9679,21.93093,30.6675,21.14988C30.6675,21.14988,28.800800000000002,21.86784,28.800800000000002,21.86784C28.800800000000002,21.86784,28.800800000000002,21.86784,28.800800000000002,21.86784ZM32.8501,23.33248C32.0691,23.032069999999997,31.844,22.93768,31.662399999999998,22.80855C31.662399999999998,22.80855,30.5034,24.43851,30.5034,24.43851C30.9386,24.74793,31.4467,24.93555,32.1322,25.199199999999998C32.1322,25.199199999999998,32.8501,23.33248,32.8501,23.33248C32.8501,23.33248,32.8501,23.33248,32.8501,23.33248ZM29.561500000000002,23.49658C29.8206,23.861,30.139,24.179389999999998,30.5034,24.43851C30.5034,24.43851,31.662399999999998,22.80855,31.662399999999998,22.80855C31.4802,22.67899,31.320999999999998,22.5198,31.1914,22.33759C31.1914,22.33759,29.561500000000002,23.49658,29.561500000000002,23.49658C29.561500000000002,23.49658,29.561500000000002,23.49658,29.561500000000002,23.49658ZM23.86784,25.199199999999998C24.55326,24.93555,25.06142,24.74793,25.49658,24.43851C25.49658,24.43851,24.33759,22.80855,24.33759,22.80855C24.156,22.93768,23.93093,23.032069999999997,23.14988,23.33248C23.14988,23.33248,23.86784,25.199199999999998,23.86784,25.199199999999998C23.86784,25.199199999999998,23.86784,25.199199999999998,23.86784,25.199199999999998ZM25.33248,21.14988C25.032069999999997,21.93093,24.93768,22.156,24.80855,22.33759C24.80855,22.33759,26.438499999999998,23.49658,26.438499999999998,23.49658C26.7479,23.06142,26.935499999999998,22.55326,27.199199999999998,21.86784C27.199199999999998,21.86784,25.33248,21.14988,25.33248,21.14988C25.33248,21.14988,25.33248,21.14988,25.33248,21.14988ZM25.49658,24.43851C25.861,24.179389999999998,26.1794,23.861,26.438499999999998,23.49658C26.438499999999998,23.49658,24.80855,22.33759,24.80855,22.33759C24.67899,22.5198,24.5198,22.67899,24.33759,22.80855C24.33759,22.80855,25.49658,24.43851,25.49658,24.43851C25.49658,24.43851,25.49658,24.43851,25.49658,24.43851ZM27.199199999999998,30.132199999999997C26.935499999999998,29.4467,26.7479,28.9386,26.438499999999998,28.5034C26.438499999999998,28.5034,24.80855,29.662399999999998,24.80855,29.662399999999998C24.93768,29.844,25.03208,30.0691,25.33248,30.850099999999998C25.33248,30.850099999999998,27.199199999999998,30.132199999999997,27.199199999999998,30.132199999999997C27.199199999999998,30.132199999999997,27.199199999999998,30.132199999999997,27.199199999999998,30.132199999999997ZM23.14988,28.6675C23.93093,28.9679,24.156,29.0623,24.33759,29.1914C24.33759,29.1914,25.49658,27.561500000000002,25.49658,27.561500000000002C25.06142,27.2521,24.55326,27.064500000000002,23.86784,26.800800000000002C23.86784,26.800800000000002,23.14988,28.6675,23.14988,28.6675C23.14988,28.6675,23.14988,28.6675,23.14988,28.6675ZM26.438499999999998,28.5034C26.1794,28.139,25.861,27.8206,25.49658,27.561500000000002C25.49658,27.561500000000002,24.33759,29.1914,24.33759,29.1914C24.5198,29.320999999999998,24.67899,29.4802,24.80855,29.662399999999998C24.80855,29.662399999999998,26.438499999999998,28.5034,26.438499999999998,28.5034C26.438499999999998,28.5034,26.438499999999998,28.5034,26.438499999999998,28.5034Z" fill="#344054" fill-opacity="1"/></g></g></g></svg>