<svg xmlns="http://www.w3.org/2000/svg" xmlns:xlink="http://www.w3.org/1999/xlink" fill="none" version="1.1" width="42" height="42" viewBox="0 0 42 42"><defs><clipPath id="master_svg0_297_29988"><rect x="10.5" y="10.5" width="21" height="21" rx="0"/></clipPath></defs><g><g><rect x="0" y="0" width="42" height="42" rx="21" fill="#F3F3F3" fill-opacity="1"/></g><g clip-path="url(#master_svg0_297_29988)"><g><path d="M26.035809765625,11.760009765625L26.218509765625,11.765259775625C27.849109765625,11.866059765625,29.115409765625,13.308759765625,29.115409765625,15.043359765625L29.115409765625,20.448759765625L29.108109765625,20.553759765625C29.049909765625,20.991179765625,28.663209765625,21.309019765625003,28.222809765625,21.281369765625C27.782409765625,21.253729765625,27.438509765625,20.890019765625,27.435509765625,20.448759765625L27.435509765625,15.043359765625L27.428109765625003,14.885859765625C27.358809765625,14.061609765625,26.746609765625,13.440009765625,26.035809765625,13.440009765625L14.839659765625,13.440009765625L14.707359765625,13.447359765625C14.010159765625,13.522959765625,13.440009765625,14.194959765625,13.440009765625,15.043359765625L13.440009765625,27.257009765625L13.446309765625,27.414509765625C13.515609765625,28.237609765625,14.128809765625,28.860309765625,14.839659765625,28.860309765625L23.130509765625,28.860309765625L23.235509765625,28.866609765625C23.676509765625,28.920909765625,23.999009765625,29.309409765625,23.971109765625002,29.752909765625C23.943309765625,30.196409765625,23.574909765625,30.541509765625,23.130509765625,30.540309765625L14.839659765625,30.540309765625L14.656959765625,30.534009765625C13.026309765625,30.433209765625,11.760009765625,28.990509765625,11.760009765625,27.258009765624998L11.760009765625,15.042309765625L11.765259775625,14.850159765625C11.857659765625,13.140759765624999,13.182759765625,11.760009765625,14.839659765625,11.760009765625L26.035809765625,11.760009765625ZM26.849509765625,22.484709765625C27.273009765624998,22.484609765625002,27.630309765625,22.799609765625,27.683209765625,23.219709765624998L27.689509765625,23.324709765625002L27.689509765625,25.334409765625L29.700309765625,25.334409765625C30.144709765625,25.333209765625,30.513209765625,25.678309765625002,30.541009765625,26.121809765625002C30.568809765625,26.565309765625003,30.246409765625,26.953809765625,29.805309765625,27.008109765625L29.700309765625,27.015509765624998L27.689509765625,27.014409765625L27.689509765625,29.025209765625C27.686509765625,29.466409765625,27.342609765625,29.830109765625,26.902209765625003,29.857809765625C26.461809765625,29.885409765625,26.075109765625,29.567609765625,26.016909765625,29.130109765625L26.009509765624998,29.025209765625L26.009509765624998,27.014409765625L23.999809765625002,27.014409765625C23.558609765625,27.011409765625,23.194909765625,26.667509765625,23.167209765625,26.227009765625C23.139609765625,25.786609765625002,23.457409765625002,25.399909765625,23.894809765625,25.341809765625L23.999809765625002,25.335509765624998L26.009509765624998,25.334409765625L26.009509765624998,23.324709765625002C26.009509765624998,22.860809765625,26.385609765625,22.484709765625,26.849509765625,22.484709765625ZM20.345859765625,22.677909765625C20.787119765625,22.680909765625,21.150819765625002,23.024809765625,21.178469765625,23.465309765625C21.206119765624997,23.905709765624998,20.888279765625,24.292409765625003,20.450859765624998,24.350509765625L20.345859765625,24.357909765625L16.071309765625,24.357909765625C15.626909765625,24.359109765625,15.258439765624999,24.014009765624998,15.230609765625001,23.570509765624998C15.202789765624999,23.127009765625,15.525239765624999,22.738509765625,15.966309765624999,22.684209765625L16.071309765625,22.677909765625L20.345859765625,22.677909765625ZM24.621409765625,17.160159765625C25.065809765624998,17.158919765625,25.434309765625002,17.504029765625,25.462109765625,17.947559765625C25.490009765625,18.391089765625,25.167509765625,18.779549765625,24.726409765625,18.833859765625L24.621409765625,18.840159765625L16.071309765625,18.840159765625C15.626909765625,18.841399765625,15.258439765624999,18.496289765625,15.230609765625001,18.052759765624998C15.202789765624999,17.609229765625,15.525239765624999,17.220769765625,15.966309765624999,17.166459765625L16.071309765625,17.160159765625L24.621409765625,17.160159765625Z" fill="#11181C" fill-opacity="1"/></g></g></g></svg>