<svg xmlns="http://www.w3.org/2000/svg" xmlns:xlink="http://www.w3.org/1999/xlink" fill="none" version="1.1" width="40.2958984375" height="40.29638671875" viewBox="0 0 40.2958984375 40.29638671875"><defs><clipPath id="master_svg0_147_69089"><rect x="10.07421875" y="8.814453125" width="20.148147583007812" height="21.491357803344727" rx="0"/></clipPath></defs><g><g><rect x="0" y="0" width="40.296295166015625" height="40.296295166015625" rx="20.148147583007812" fill="#F3F3F3" fill-opacity="1"/></g><g clip-path="url(#master_svg0_147_69089)"><g><path d="M19.72853875,8.814453125C25.06051875,8.814453125,29.38281875,13.137503125,29.38281875,18.470263125000002C29.38281875,20.677053125,28.64261875,22.710953125,27.39711875,24.337153125L27.39681875,28.484553125C27.39681875,28.655453125,27.37281875,28.825453125,27.32541875,28.989553125C27.04931875,29.946053125,26.05741875,30.501653125,25.10031875,30.242053125L25.07131875,30.233953125L20.85481875,29.016453125C20.16871875,28.818353125,19.441198749999998,28.814353125,18.75300875,29.004953125L18.712598749999998,29.016453125L14.49606875,30.233953125C14.33195875,30.281253125,14.16196875,30.305353125,13.99111875,30.305353125C12.995698749999999,30.305353125,12.186898750000001,29.506353125,12.17082875,28.514653125L12.17058875,28.484553125L12.17034875,24.478453125C10.85826975,22.829553125,10.07421875,20.741453125,10.07421875,18.470263125000002C10.07421875,13.137503125,14.396598749999999,8.814453125,19.72853875,8.814453125ZM25.96271875,25.843353125C24.83601875,26.797253125,23.48771875,27.497453125,22.006018750000003,27.855853125L25.46921875,28.855653125C25.674118749999998,28.914753125,25.88821875,28.796553125,25.94731875,28.591653125C25.955718750000003,28.562653125,25.960618750000002,28.532753125,25.96201875,28.502653125L25.96251875,28.484553125L25.96271875,25.843353125ZM13.60476875,25.935353125L13.60493875,28.484553125C13.60493875,28.697853125,13.77782875,28.870753125,13.99111875,28.870753125C14.02130875,28.870753125,14.051388750000001,28.867253125,14.080728749999999,28.860253125L14.09823875,28.855653125L17.511478750000002,27.870253125C16.05421875,27.527753125,14.72423875,26.855053125,13.60476875,25.935353125ZM19.72853875,10.249053125C15.18877875,10.249053125,11.50857875,13.929833125,11.50857875,18.470293124999998C11.50857875,23.010753125,15.18877875,26.691553125,19.72853875,26.691553125C24.26831875,26.691553125,27.94851875,23.010753125,27.94851875,18.470263125000002C27.94851875,13.929803125,24.26831875,10.249023125,19.72853875,10.249053125L19.72853875,10.249053125ZM19.09111875,14.280433125C19.279888749999998,13.897853125000001,19.74300875,13.740773125,20.125518749999998,13.929593125C20.27781875,14.004783125,20.401118750000002,14.128093125,20.47631875,14.280433125L21.557018749999997,16.470563124999998L23.97361875,16.821763125C24.39001875,16.882283125,24.680318749999998,17.264543125,24.62911875,17.680193125000002L24.62691875,17.697273125000002C24.60241875,17.865393125,24.52331875,18.020763125000002,24.40161875,18.139353125L22.65301875,19.844053125000002L23.06581875,22.251353125C23.13691875,22.666053124999998,22.86321875,23.060253125,22.45231875,23.140153124999998L22.43511875,23.143253125C22.26771875,23.171953125,22.09551875,23.144653124999998,21.945218750000002,23.065653125L19.783708750000002,21.929153125L17.62224875,23.065653125C17.25007875,23.261353125,16.79103875,23.123053125,16.58787875,22.757453124999998L16.57921875,22.741353125C16.50017875,22.590953125,16.472908750000002,22.418753125000002,16.501628750000002,22.251353125L16.91439875,19.844053125000002L15.165748749999999,18.139333125C14.86501875,17.846133125,14.854318750000001,17.367493125,15.13826875,17.061213125000002L15.15178875,17.046993125C15.27034875,16.925353125,15.42570875,16.846183125,15.59380875,16.821763125L18.01033875,16.470533125L19.09111875,14.280433125ZM19.783708750000002,16.118353125L18.96290875,17.781773125L17.12750875,18.048523125L18.45560875,19.343253125L18.14204875,21.171553125000003L19.783708750000002,20.308353125L21.425318750000002,21.171553125000003L21.111818749999998,19.343353125L22.43981875,18.048543125000002L20.60451875,17.781773125L19.783708750000002,16.118353125Z" fill="#333333" fill-opacity="1" style="mix-blend-mode:passthrough"/></g></g></g></svg>