<svg xmlns="http://www.w3.org/2000/svg" xmlns:xlink="http://www.w3.org/1999/xlink" fill="none" version="1.1" width="56" height="56" viewBox="0 0 56 56"><defs><clipPath id="master_svg0_88_03006"><rect x="17" y="16.5" width="22" height="22" rx="0"/></clipPath></defs><g><rect x="4" y="4" width="48" height="48" rx="24" fill="#FEEFC7" fill-opacity="1"/><rect x="4" y="4" width="48" height="48" rx="24" fill-opacity="0" stroke-opacity="1" stroke="#FFFAEB" fill="none" stroke-width="8"/><g clip-path="url(#master_svg0_88_03006)"><g><path d="M27.526622656249998,38.49871796875L26.88065265625,38.49961796875C25.04411265625,38.49211796875,23.20917265625,38.491117968750004,21.37393265625,38.491117968750004L17.94521165625,38.49081796875L17.94521165625,27.32941796875L17.05352310325,27.329117968749998L17.05322265625,21.92373796875L21.30998265625,21.92373796875C20.71650265625,21.50739796875,20.26540265625,20.97395796875,20.00488265625,20.36801796875C19.65385265625,19.53535796875,19.641392656249998,18.63873796875,19.96977265625,17.90644796875C20.21977265625,17.33854796875,20.73353265625,16.89071696875,21.34375265625,16.71028296875C21.667582656249998,16.61449066875,22.00317265625,16.56591796875,22.341092656249998,16.56591796875C22.86927265625,16.56591796875,23.38271265625,16.68729596875,23.82663265625,16.91694796875C24.13435265625,17.06588796875,24.38892265625,17.28636696875,24.63565265625,17.49960496875C25.24817265625,18.08814796875,25.66906265625,18.80434796875,26.076532656250002,19.49692796875L26.26487265625,19.81549796875C26.54176265625,20.28923796875,26.82686265625,20.77739796875,27.232022656250003,21.145177968749998C27.448922656249998,21.35646796875,27.72642265625,21.473907968749998,27.99972265625,21.473907968749998L28.04862265625,21.47255796875C28.333322656249997,21.46896796875,28.61582265625,21.33837796875,28.833322656249997,21.11398796875C29.23462265625,20.73277796875,29.50752265625,20.26328796875,29.796222656250002,19.76625796875C29.88322265625,19.61632796875,29.97012265625,19.46674796875,30.06032265625,19.32007796875C30.55182265625,18.48151796875,31.10562265625,17.61144796875,31.96182265625,17.05602696875C32.46222265625,16.73520296875,33.061222656249996,16.56623990375,33.69572265625,16.56623990375C33.98542265625,16.56623990375,34.275122656250005,16.60200886875,34.55662265625,16.67251596875C35.12282265625,16.81786896875,35.58772265625,17.13478296875,35.86662265625,17.56551396875C36.26222265625,18.12685796875,36.395122656249995,18.92079796875,36.22612265625,19.73572796875C36.068322656250004,20.52967796875,35.569622656250004,21.290807968750002,34.85842265625,21.822617968750002C34.81442265625,21.85640796875,34.76922265625,21.88987796875,34.72232265625,21.92298796875Q35.03522265625,21.92330796875,38.979322656250005,21.923977968750002L38.979322656250005,27.330317968750002Q38.13462265625,27.32971796875,38.09092265625,27.32941796875C38.08472265625,29.42411796875,38.08572265625,31.51891796875,38.086722656250004,33.61361796875C38.087322656249995,35.157217968750004,38.088022656250004,36.70081796875,38.08602265625,38.24441796875L38.08572265625,38.49181796875L31.11212265625,38.491117968750004C30.47862265625,38.49831796875,29.841822656250002,38.50001796875,29.20542265625,38.50001796875L27.526622656249998,38.49871796875ZM30.94282265625,30.78241796875C30.94252265625,32.88961796875,30.94222265625,34.99681796875,30.94382265625,37.103717968750004L36.698922656250005,37.10281796875L36.698922656250005,27.33821796875L30.94282265625,27.33761796875L30.94282265625,30.78241796875L30.94282265625,30.78241796875ZM25.08905265625,37.10341796875L25.08905265625,36.56591796875C25.09002265625,33.48961796875,25.091002656249998,30.41361796875,25.088732656250002,27.33721796875L19.33362265625,27.33821796875L19.33362265625,37.10271796875L23.92045265625,37.103017968749995L25.08905265625,37.10341796875ZM29.55452265625,37.09451796875C29.55512265625,32.50381796875,29.55512265625,27.913017968749998,29.55452265625,23.321967968750002L26.47813265625,23.321967968750002C26.47744265625,27.913017968749998,26.47744265625,32.503717968749996,26.47813265625,37.09451796875L29.55452265625,37.09451796875ZM37.591622656249996,25.93312796875L37.591622656249996,23.31180796875L30.94322265625,23.31114796875L30.942922656249998,25.932777968750003L34.258122656249995,25.932777968750003L37.591622656249996,25.93312796875ZM25.08972265625,25.93213796875L25.08939265625,23.31114796875L18.44097265625,23.31210796875L18.44097265625,25.932777968750003L19.594472656249998,25.932777968750003L25.08972265625,25.93213796875ZM30.97442265625,21.47721796875C31.23682265625,21.47721796875,31.49902265625,21.47622796875,31.761422656249998,21.470987968750002C32.420222656250004,21.44537796875,33.061222656249996,21.27577796875,33.609422656250004,20.98117796875C34.24072265625,20.64228796875,34.689222656249996,20.128177968750002,34.83912265625,19.57078796875C34.91092265625,19.29060796875,34.992322656249996,18.75617796875,34.72462265625,18.35459796875C34.57892265625,18.11970796875,34.28592265625,18.02949796875,34.12352265625,17.99602796875C33.98122265625,17.96945796875,33.83422265625,17.95566796875,33.690522656249996,17.95566796875C33.364722656249995,17.95566796875,33.06092265625,18.02883796875,32.81222265625,18.16728796875C32.39822265625,18.40381796875,32.03702265625,18.78341796875,31.64302265625,19.39692796875C31.45402265625,19.68301796875,31.277822656250002,19.985167968749998,31.10762265625,20.27714796875C30.87332265625,20.67805796875,30.63352265625,21.08912796875,30.35292265625,21.476247968750002L30.97442265625,21.47721796875ZM25.679572656250002,21.47654796875C25.40072265625,21.092047968750002,25.16256265625,20.68357796875,24.92990265625,20.28498796875C24.77342265625,20.01661796875,24.61136265625,19.739387968750002,24.44143265625,19.477277968750002C24.19472265625,19.08849796875,23.88829265625,18.65116796875,23.474912656249998,18.33818796875C23.17211265625,18.08885796875,22.777732656250002,17.95499796875,22.35680265625,17.95499796875C22.31548265625,17.95499796875,22.27445265625,17.95632796875,22.23346265625,17.95894796875C21.82469265625,17.97536796875,21.53336265625,18.08329796875,21.36242265625,18.27917796875C21.057302656250002,18.64334796875,21.10882265625,19.17711796875,21.16688265625,19.46251796875C21.27120265625,19.97528796875,21.628162656249998,20.46739796875,22.146182656249998,20.81255796875C22.78461265625,21.24034796875,23.61429265625,21.47592796875,24.48306265625,21.47592796875L25.59392265625,21.47657796875L25.679572656250002,21.47654796875Z" fill="#DC6803" fill-opacity="1" style="mix-blend-mode:passthrough"/></g></g></g></svg>