<svg xmlns="http://www.w3.org/2000/svg" xmlns:xlink="http://www.w3.org/1999/xlink" fill="none" version="1.1" width="32" height="23.5654296875" viewBox="0 0 32 23.5654296875"><defs><filter id="master_svg0_147_056815/147_056532" filterUnits="objectBoundingBox" color-interpolation-filters="sRGB" x="-0.21052631578947367" y="-0.21052631578947367" width="1.4210526315789473" height="1.4210526315789473"><feFlood flood-opacity="0" result="BackgroundImageFix"/><feColorMatrix in="SourceAlpha" type="matrix" values="0 0 0 0 0 0 0 0 0 0 0 0 0 0 0 0 0 0 127 0"/><feOffset dy="0" dx="0"/><feGaussianBlur stdDeviation="1"/><feColorMatrix type="matrix" values="0 0 0 0 1 0 0 0 0 0.2907488942146301 0 0 0 0 0.2907488942146301 0 0 0 0.30000001192092896 0"/><feBlend mode="normal" in2="BackgroundImageFix" result="effect1_dropShadow"/><feBlend mode="normal" in="SourceGraphic" in2="effect1_dropShadow" result="shape"/><feColorMatrix in="SourceAlpha" type="matrix" result="hardAlpha" values="0 0 0 0 0 0 0 0 0 0 0 0 0 0 0 0 0 0 127 0"/><feOffset dy="-0.5" dx="0"/><feGaussianBlur stdDeviation="0.25"/><feComposite in2="hardAlpha" operator="arithmetic" k2="-1" k3="1"/><feColorMatrix type="matrix" values="0 0 0 0 0.8373017311096191 0 0 0 0 0.6702101826667786 0 0 0 0 0.280330091714859 0 0 0 0.30000001192092896 0"/><feBlend mode="normal" in2="shape" result="effect2_innerShadow"/><feColorMatrix in="SourceAlpha" type="matrix" result="hardAlpha" values="0 0 0 0 0 0 0 0 0 0 0 0 0 0 0 0 0 0 127 0"/><feOffset dy="0.5" dx="0"/><feGaussianBlur stdDeviation="0"/><feComposite in2="hardAlpha" operator="arithmetic" k2="-1" k3="1"/><feColorMatrix type="matrix" values="0 0 0 0 1 0 0 0 0 1 0 0 0 0 1 0 0 0 0.20000000298023224 0"/><feBlend mode="normal" in2="effect2_innerShadow" result="effect3_innerShadow"/><feColorMatrix in="SourceAlpha" type="matrix" result="hardAlpha" values="0 0 0 0 0 0 0 0 0 0 0 0 0 0 0 0 0 0 127 0"/><feOffset dy="2" dx="0"/><feGaussianBlur stdDeviation="1"/><feComposite in2="hardAlpha" operator="arithmetic" k2="-1" k3="1"/><feColorMatrix type="matrix" values="0 0 0 0 1 0 0 0 0 1 0 0 0 0 1 0 0 0 0.30000001192092896 0"/><feBlend mode="normal" in2="effect3_innerShadow" result="effect4_innerShadow"/></filter><filter id="master_svg1_147_056815/147_056533" filterUnits="objectBoundingBox" color-interpolation-filters="sRGB" x="-0.14285714285714285" y="-0.1" width="1.2857142857142858" height="1.4"><feFlood flood-opacity="0" result="BackgroundImageFix"/><feColorMatrix in="SourceAlpha" type="matrix" values="0 0 0 0 0 0 0 0 0 0 0 0 0 0 0 0 0 0 127 0"/><feOffset dy="0.5" dx="0"/><feGaussianBlur stdDeviation="0.25"/><feColorMatrix type="matrix" values="0 0 0 0 1 0 0 0 0 0.7882353067398071 0 0 0 0 0.47058823704719543 0 0 0 0.5 0"/><feBlend mode="normal" in2="BackgroundImageFix" result="effect1_dropShadow"/><feBlend mode="normal" in="SourceGraphic" in2="effect1_dropShadow" result="shape"/></filter></defs><g><g><g filter="url(#master_svg0_147_056815/147_056532)"><path d="M13.773,6.15401484375Q13.8352,6.240844843750001,13.9143,6.31258484375Q13.9934,6.38432484375,14.0859,6.43772484375Q14.1784,6.49113484375,14.2801,6.52379484375Q14.3818,6.55645484375,14.4881,6.56690484375L17.8379,6.89615484375Q17.897,6.90196484375,17.955,6.91472484375Q18.013,6.92749484375,18.0691,6.94703484375Q18.1252,6.96658484375,18.1785,6.99262484375Q18.2319,7.01867484375,18.2818,7.05085484375Q18.3318,7.08303484375,18.3775,7.12089484375Q18.4233,7.15876484375,18.4642,7.20177484375Q18.5052,7.24479484375,18.5408,7.29235484375Q18.5764,7.33991484375,18.6061,7.39135484375Q18.6358,7.44279484375,18.6592,7.49738484375Q18.6826,7.55197484375,18.6993,7.60895484375Q18.7161,7.66593484375,18.726,7.72449484375Q18.7359,7.78306484375,18.7388,7.84238484375Q18.7417,7.90171484375,18.7376,7.96096484375Q18.7335,8.02021484375,18.7224,8.07856484375Q18.7112,8.13690484375,18.6933,8.19352484375Q18.6753,8.25014484375,18.6508,8.30424484375L17.2611,11.36982484375Q17.217,11.46710484375,17.1944,11.57150484375Q17.1719,11.67590484375,17.1719,11.78271484375Q17.1719,11.88952484375,17.1944,11.99392484375Q17.217,12.09832484375,17.2611,12.19560484375L18.6508,15.26121484375Q18.6753,15.31531484375,18.6933,15.37191484375Q18.7112,15.42851484375,18.7224,15.48691484375Q18.7335,15.54521484375,18.7376,15.60451484375Q18.7417,15.66371484375,18.7388,15.72301484375Q18.7359,15.78241484375,18.726,15.84091484375Q18.7161,15.89951484375,18.6993,15.95651484375Q18.6826,16.01341484375,18.6592,16.06801484375Q18.6358,16.12261484375,18.6061,16.17411484375Q18.5764,16.22551484375,18.5408,16.27311484375Q18.5052,16.32061484375,18.4642,16.36361484375Q18.4233,16.406714843750002,18.3775,16.44451484375Q18.3318,16.48241484375,18.2818,16.51461484375Q18.2319,16.54671484375,18.1785,16.572814843750002Q18.1252,16.59881484375,18.0691,16.61841484375Q18.013,16.63791484375,17.955,16.650714843750002Q17.897,16.66351484375,17.8379,16.66931484375L14.4881,16.99851484375Q14.3818,17.009014843750002,14.2801,17.04161484375Q14.1784,17.074314843750003,14.0859,17.12771484375Q13.9934,17.181114843750002,13.9143,17.252814843750002Q13.8352,17.32461484375,13.773,17.411414843750002L11.813,20.14771484375Q11.7784,20.19601484375,11.7383,20.23991484375Q11.6983,20.28371484375,11.6533,20.32251484375Q11.6083,20.36131484375,11.5591,20.39451484375Q11.5098,20.42771484375,11.45699,20.45491484375Q11.40416,20.48201484375,11.34849,20.50271484375Q11.29282,20.52341484375,11.23508,20.53741484375Q11.17735,20.55141484375,11.11837,20.55841484375Q11.05939,20.56541484375,11,20.56541484375Q10.9406,20.56541484375,10.88163,20.55841484375Q10.82265,20.55141484375,10.76491,20.53741484375Q10.70718,20.52341484375,10.65151,20.50271484375Q10.59584,20.48201484375,10.54301,20.45491484375Q10.49018,20.42771484375,10.44093,20.39451484375Q10.39168,20.36131484375,10.34671,20.32251484375Q10.30174,20.28371484375,10.26168,20.23991484375Q10.22162,20.19601484375,10.18704,20.14771484375L8.22703,17.411414843750002Q8.16484,17.32461484375,8.0857,17.252814843750002Q8.00657,17.181114843750002,7.91407,17.12771484375Q7.82157,17.074314843750003,7.71988,17.04161484375Q7.61819,17.009014843750002,7.51189,16.99851484375L4.1621500000000005,16.66931484375Q4.10304,16.66351484375,4.045030000000001,16.650714843750002Q3.98702,16.63791484375,3.93093,16.61841484375Q3.87484,16.59881484375,3.82146,16.572814843750002Q3.76808,16.54671484375,3.71816,16.51461484375Q3.66824,16.48241484375,3.62248,16.44451484375Q3.57671,16.40661484375,3.53576,16.36361484375Q3.4947999999999997,16.32061484375,3.45922,16.27311484375Q3.42364,16.22551484375,3.3939399999999997,16.17411484375Q3.3642399999999997,16.12261484375,3.34084,16.06801484375Q3.31744,16.01341484375,3.30067,15.95651484375Q3.2839,15.89951484375,3.27399,15.84091484375Q3.26408,15.78241484375,3.26117,15.72301484375Q3.25826,15.66371484375,3.26239,15.60441484375Q3.26653,15.54521484375,3.27765,15.48691484375Q3.28877,15.42851484375,3.30671,15.37191484375Q3.3246599999999997,15.31531484375,3.34919,15.26121484375L4.73892,12.19560484375Q4.7830200000000005,12.09832484375,4.80558,11.99392484375Q4.828139999999999,11.88952484375,4.828139999999999,11.78271484375Q4.828139999999999,11.67590484375,4.80558,11.57150484375Q4.7830200000000005,11.46710484375,4.73892,11.36982484375L3.34919,8.30424484375Q3.3246599999999997,8.25014484375,3.30671,8.19352484375Q3.28877,8.13690484375,3.27765,8.07856484375Q3.26653,8.02021484375,3.26239,7.96096484375Q3.25826,7.90171484375,3.26117,7.84238484375Q3.26408,7.78306484375,3.27399,7.72449484375Q3.2839,7.66593484375,3.30067,7.60895484375Q3.31744,7.55197484375,3.34084,7.49738484375Q3.3642399999999997,7.44279484375,3.3939399999999997,7.39135484375Q3.42364,7.33991484375,3.45922,7.29235484375Q3.4947999999999997,7.24479484375,3.53575,7.20177484375Q3.57671,7.15876484375,3.62247,7.12089484375Q3.66824,7.08303484375,3.71816,7.05085484375Q3.76808,7.01867484375,3.82146,6.99262484375Q3.87484,6.96658484375,3.93093,6.94703484375Q3.98702,6.92749484375,4.045030000000001,6.91472484375Q4.10304,6.90196484375,4.1621500000000005,6.89615484375L7.51189,6.56690484375Q7.61818,6.55645484375,7.71988,6.52379484375Q7.82157,6.49113484375,7.91407,6.43772484375Q8.00657,6.38432484375,8.0857,6.31258484375Q8.16483,6.240844843750001,8.22703,6.15401484375L10.18704,3.41768484375Q10.22162,3.3693948437500003,10.26168,3.32554484375Q10.30174,3.28168684375,10.34671,3.2428848437499997Q10.39168,3.20408184375,10.44093,3.17087584375Q10.49018,3.13766884375,10.54301,3.11052584375Q10.59584,3.08338184375,10.65151,3.06268284375Q10.70718,3.0419838437499997,10.76491,3.0280208437500002Q10.82265,3.01405784375,10.88163,3.00702684375Q10.9406,2.99999584375,11,2.99999584375Q11.05939,2.99999584375,11.11837,3.00702684375Q11.17735,3.01405784375,11.23508,3.0280208437500002Q11.29282,3.0419838437499997,11.34849,3.06268284375Q11.40416,3.08338184375,11.45699,3.11052584375Q11.5098,3.13766884375,11.5591,3.17087584375Q11.6083,3.20408184375,11.6533,3.2428848437499997Q11.6983,3.28168684375,11.7383,3.32554484375Q11.7784,3.3693948437500003,11.813,3.41768484375L13.773,6.15401484375Z" fill="#FFBF8B" fill-opacity="1"/></g><g filter="url(#master_svg1_147_056815/147_056533)"><path d="M8.5,9.28271484375L7.5,9.28271484375Q7.4015086,9.28271484375,7.30491,9.301929843749999Q7.208311,9.32114484375,7.117317,9.35883584375Q7.026322,9.39652684375,6.94443,9.45124484375Q6.862537,9.50596384375,6.792893,9.57560784375Q6.723249,9.64525184375,6.66853,9.72714484375Q6.613812,9.80903684375,6.576121,9.90003184375Q6.53843,9.99102584375,6.519215,10.08762484375Q6.5,10.18422344375,6.5,10.28271484375Q6.5,10.38120624375,6.519215,10.47780484375Q6.53843,10.57440384375,6.576121,10.66539784375Q6.613812,10.75639284375,6.66853,10.83828484375Q6.723249,10.92017784375,6.792893,10.98982184375Q6.862537,11.05946584375,6.94443,11.11418484375Q7.026322,11.16890284375,7.117317,11.20659384375Q7.208311,11.24428484375,7.30491,11.263499843750001Q7.4015086,11.28271484375,7.5,11.28271484375L7.881966,11.28271484375L10.10557,15.72992484375Q10.14962,15.818024843749999,10.21001,15.895824843749999Q10.270389999999999,15.97363484375,10.3448,16.03816484375Q10.4192,16.10269484375,10.50477,16.15147484375Q10.59033,16.20025484375,10.683769999999999,16.23139484375Q10.77721,16.26254484375,10.874929999999999,16.27486484375Q10.97264,16.28718484375,11.07089,16.28019484375Q11.16913,16.27321484375,11.26413,16.247204843749998Q11.35912,16.22118484375,11.44721,16.17714484375Q11.59236,16.10456484375,11.70711,15.98982484375Q11.821850000000001,15.87507484375,11.89443,15.72992484375L14.118030000000001,11.28271484375L14.5,11.28271484375Q14.59849,11.28271484375,14.69509,11.263499843750001Q14.79169,11.24428484375,14.88268,11.20659384375Q14.97368,11.16890284375,15.05557,11.11418484375Q15.13746,11.05946584375,15.20711,10.98982184375Q15.27675,10.92017784375,15.33147,10.83828484375Q15.38619,10.75639284375,15.42388,10.66539784375Q15.46157,10.57440384375,15.48078,10.47780484375Q15.5,10.38120624375,15.5,10.28271484375Q15.5,10.18422344375,15.48078,10.08762484375Q15.46157,9.99102584375,15.42388,9.90003184375Q15.38619,9.80903684375,15.33147,9.72714484375Q15.27675,9.64525184375,15.20711,9.57560784375Q15.13746,9.50596384375,15.05557,9.45124484375Q14.97368,9.39652684375,14.88268,9.35883584375Q14.79169,9.32114484375,14.69509,9.301929843749999Q14.59849,9.28271484375,14.5,9.28271484375L13.5,9.28271484375Q13.36072,9.28271484375,13.22673,9.32077684375Q13.092749999999999,9.35883784375,12.97427,9.43206384375Q12.855789999999999,9.505289843749999,12.76182,9.60810584375Q12.667860000000001,9.71092184375,12.60557,9.83550084375L11,13.04664484375L9.39443,9.83550084375Q9.33214,9.71092184375,9.23818,9.60810584375Q9.14421,9.505289843749999,9.02573,9.43206384375Q8.90725,9.35883784375,8.77327,9.32077684375Q8.63928,9.28271484375,8.5,9.28271484375Z" fill-rule="evenodd" fill="#FFFFFF" fill-opacity="1"/></g></g><g><path d="M31.158,15.43871484375L29.701999999999998,15.43871484375L29.701999999999998,17.902714843749997L27.686,17.902714843749997L27.686,15.43871484375L22.842,15.43871484375L22.842,14.02471484375L28.008,6.29671484375L29.701999999999998,6.29671484375L29.701999999999998,13.716714843750001L31.158,13.716714843750001L31.158,15.43871484375ZM27.686,13.716714843750001L27.686,9.67071484375L24.984,13.716714843750001L27.686,13.716714843750001Z" fill="#FFC392" fill-opacity="1"/></g></g></svg>