<svg xmlns="http://www.w3.org/2000/svg" xmlns:xlink="http://www.w3.org/1999/xlink" fill="none" version="1.1" width="147.1594696044922" height="20" viewBox="0 0 147.1594696044922 20"><defs><clipPath id="master_svg0_133_31877/88_08702"><rect x="0" y="0" width="147.1594696044922" height="20" rx="0"/></clipPath></defs><g clip-path="url(#master_svg0_133_31877/88_08702)"><g><g><g><path d="M96.4819613671875,4.188386250000001C98.1384013671875,4.188386250000001,99.6579013671875,4.80440625,100.7530013671875,5.89954625C101.8345013671875,6.99468625,102.4368013671875,8.45943625,102.4368013671875,10.03369625C102.4368013671875,11.62165625,101.8344013671875,13.10005625,100.7530013671875,14.19525625C99.6442013671875,15.30405625,98.1247013671875,15.92005625,96.4819613671875,15.92005625C94.8392513671875,15.92005625,93.3197413671875,15.30405625,92.2109113671875,14.19525625C91.1157713671875,13.10005625,90.5271313671875,11.62165625,90.5271313671875,10.03369625C90.5271313671875,8.45943625,91.1294613671875,6.98099625,92.2109113671875,5.89954625C93.30605136718751,4.79071625,94.8255613671875,4.188386250000001,96.4819613671875,4.188386250000001ZM96.4819613671875,0.41015625C90.93781136718749,0.41015625,86.7489013671875,4.73595625,86.7489013671875,10.03369625C86.7489013671875,15.33145625,90.93781136718749,19.68465625,96.4819613671875,19.68465625C102.0261013671875,19.68465625,106.2150013671875,15.33145625,106.2150013671875,10.03369625C106.2150013671875,4.73595625,102.0261013671875,0.41015625,96.4819613671875,0.41015625Z" fill="#11181C" fill-opacity="1" style="mix-blend-mode:passthrough"/></g><g><path d="M117.9468051171875,4.188386250000001C119.6032451171875,4.188386250000001,121.1227451171875,4.80440625,122.2178451171875,5.89954625C123.2993451171875,6.99468625,123.9016451171875,8.45943625,123.9016451171875,10.03369625C123.9016451171875,11.62165625,123.2992451171875,13.10005625,122.2178451171875,14.19525625C121.1090451171875,15.30405625,119.5895451171875,15.92005625,117.9468051171875,15.92005625C116.3040951171875,15.92005625,114.7845851171875,15.30405625,113.6757551171875,14.19525625C112.5806151171875,13.10005625,111.9919751171875,11.62165625,111.9919751171875,10.03369625C111.9919751171875,8.45943625,112.5943051171875,6.98099625,113.6757551171875,5.89954625C114.77089511718751,4.79071625,116.2904051171875,4.188386250000001,117.9468051171875,4.188386250000001ZM117.9468051171875,0.41015625C112.40265511718749,0.41015625,108.2137451171875,4.73595625,108.2137451171875,10.03369625C108.2137451171875,15.33145625,112.40265511718749,19.68465625,117.9468051171875,19.68465625C123.4909451171875,19.68465625,127.6798451171875,15.33145625,127.6798451171875,10.03369625C127.6798451171875,4.73595625,123.4909451171875,0.41015625,117.9468051171875,0.41015625Z" fill="#11181C" fill-opacity="1" style="mix-blend-mode:passthrough"/></g><g><g><rect x="130.1846923828125" y="17.015576362609863" width="16.974674224853516" height="2.4914441108703613" rx="0" fill="#04CC79" fill-opacity="1" style="mix-blend-mode:passthrough"/></g><g><path d="M147.15939238281248,0.5878419876098633L147.15939238281248,14.810941987609864L142.9156923828125,14.810941987609864L142.9156923828125,7.829451987609863L141.3003923828125,9.691191987609864L138.6857123828125,12.716541987609864L136.0710723828125,9.691191987609864L134.4557423828125,7.8020819876098635L134.4557423828125,14.810941987609864L130.1846923828125,14.810941987609864L130.1846923828125,0.5878419876098633L133.4427323828125,0.5878419876098633L134.4557423828125,1.7651219876098634L138.6857123828125,6.665871987609863L142.9156923828125,1.7514319876098632L143.9012923828125,0.5878419876098633L147.15939238281248,0.5878419876098633Z" fill="#11181C" fill-opacity="1" style="mix-blend-mode:passthrough"/></g></g><g><path d="M85.7903819921875,15.3038625L85.7903819921875,19.5064625L79.2742919921875,19.5064625L79.2742919921875,0.6015625L83.6274819921875,0.6015625L83.6274819921875,15.3038625L85.7903819921875,15.3038625Z" fill="#11181C" fill-opacity="1" style="mix-blend-mode:passthrough"/></g></g><g><g><g><path d="M10.089,20C4.43532,20,0,15.6057,0,9.99315C0,4.39425,4.43532,0,10.089,0C15.7426,0,20.178,4.39425,20.178,9.99315C20.178,15.6057,15.7563,20,10.089,20ZM10.089,0.821355C4.88706,0.821355,0.821355,4.846,0.821355,9.99315C0.821355,15.154,4.88706,19.1923,10.089,19.1923C15.2909,19.1923,19.3566,15.154,19.3566,9.99315C19.3566,4.846,15.2909,0.821355,10.089,0.821355ZM10.089,16.0712C6.84463,16.0712,4.21629,13.347,4.21629,9.99315C4.21629,6.65298,6.84463,3.9425,10.089,3.9425C13.3333,3.9425,15.9617,6.65298,15.9617,9.99315C15.9617,13.347,13.3333,16.0712,10.089,16.0712ZM10.089,4.75017C7.31006,4.75017,5.03764,7.09103,5.03764,9.97947C5.03764,12.8816,7.31006,15.2361,10.089,15.2361C12.8679,15.2361,15.1403,12.8816,15.1403,9.97947C15.1403,7.10472,12.8816,4.75017,10.089,4.75017Z" fill="#11181C" fill-opacity="1" style="mix-blend-mode:passthrough"/></g></g><g><g><path d="M25.941215234375,19.507318550109865L21.697543234375,19.507318550109865C21.464826234375,19.507318550109865,21.286865234375,19.329418550109864,21.286865234375,19.096718550109863L21.286865234375,0.9994965501098633C21.286865234375,0.7667785501098633,21.464826234375,0.5888185501098633,21.697543234375,0.5888185501098633L30.499735234375002,0.5888185501098633C35.893265234375,0.5888185501098633,38.316265234374995,4.202778550109864,38.316265234374995,7.7756785501098635C38.316265234374995,11.348618550109864,35.906965234375,14.962518550109863,30.499735234375002,14.962518550109863L26.351885234375,14.962518550109863L26.351885234375,19.083018550109863C26.351885234375,19.329418550109864,26.173925234374998,19.507318550109865,25.941215234375,19.507318550109865ZM22.108220234375,18.686018550109864L25.530535234375,18.686018550109864L25.530535234375,14.565518550109863C25.530535234375,14.332818550109863,25.708495234375,14.154818550109864,25.941215234375,14.154818550109864L30.499735234375002,14.154818550109864C34.743365234375,14.154818550109864,37.494965234375,11.649718550109863,37.494965234375,7.789368550109863C37.494965234375,3.9153085501098635,34.743365234375,1.4238635501098633,30.499735234375002,1.4238635501098633L22.108218234375,1.4238635501098633L22.108220234375,18.686018550109864ZM30.472355234375,11.102118550109862L25.941215234375,11.102118550109862C25.708495234375,11.102118550109862,25.530535234375,10.924218550109863,25.530535234375,10.691518550109864L25.530535234375,4.859868550109863C25.530535234375,4.6271485501098635,25.708495234375,4.449188550109863,25.941215234375,4.449188550109863L30.472355234375,4.449188550109863C32.512065234375,4.449188550109863,34.045265234375,5.886558550109863,34.045265234375,7.789368550109863C34.045265234375,9.678478550109864,32.512065234375,11.102118550109862,30.472355234375,11.102118550109862ZM26.351885234375,10.280808550109864L30.472355234375,10.280808550109864C32.060265234375,10.280808550109864,33.223865234375,9.240428550109863,33.223865234375,7.789368550109863C33.223865234375,6.338308550109863,32.073965234375,5.270538550109864,30.472355234375,5.270538550109864L26.351885234375,5.270538550109864L26.351885234375,10.280808550109864Z" fill="#11181C" fill-opacity="1" style="mix-blend-mode:passthrough"/></g></g><g><g><path d="M54.74329072265625,19.507318550109865L39.72616872265625,19.507318550109865C39.49344972265625,19.507318550109865,39.31549072265625,19.329418550109864,39.31549072265625,19.096718550109863L39.31549072265625,0.9994965501098633C39.31549072265625,0.7667785501098633,39.49344972265625,0.5888185501098633,39.72616872265625,0.5888185501098633L54.74329072265625,0.5888185501098633C54.97599072265625,0.5888185501098633,55.153990722656246,0.7667785501098633,55.153990722656246,0.9994965501098633L55.153990722656246,4.791418550109864C55.153990722656246,5.024138550109863,54.97599072265625,5.202098550109863,54.74329072265625,5.202098550109863L44.38051072265625,5.202098550109863L44.38051072265625,7.748298550109864L52.79939072265625,7.748298550109864C53.03209072265625,7.748298550109864,53.21009072265625,7.926258550109863,53.21009072265625,8.158978550109863L53.21009072265625,11.937218550109863C53.21009072265625,12.169918550109863,53.03209072265625,12.347918550109863,52.79939072265625,12.347918550109863L44.38051072265625,12.347918550109863L44.38051072265625,14.921418550109863L54.74329072265625,14.921418550109863C54.97599072265625,14.921418550109863,55.153990722656246,15.099418550109863,55.153990722656246,15.332118550109863L55.153990722656246,19.110418550109863C55.153990722656246,19.329418550109864,54.97599072265625,19.507318550109865,54.74329072265625,19.507318550109865ZM40.13684572265625,18.686018550109864L54.33259072265625,18.686018550109864L54.33259072265625,15.729118550109863L43.96984072265625,15.729118550109863C43.73712072265625,15.729118550109863,43.55916072265625,15.551218550109864,43.55916072265625,15.318418550109863L43.55916072265625,11.923518550109863C43.55916072265625,11.690818550109864,43.73712072265625,11.512818550109863,43.96984072265625,11.512818550109863L52.38869072265625,11.512818550109863L52.38869072265625,8.555958550109864L43.96984072265625,8.555958550109864C43.73712072265625,8.555958550109864,43.55916072265625,8.378008550109863,43.55916072265625,8.145288550109864L43.55916072265625,4.791418550109864C43.55916072265625,4.558698550109863,43.73712072265625,4.3807385501098635,43.96984072265625,4.3807385501098635L54.33259072265625,4.3807385501098635L54.33259072265625,1.4101735501098633L40.13684572265625,1.4101735501098633L40.13684572265625,18.686018550109864Z" fill="#11181C" fill-opacity="1" style="mix-blend-mode:passthrough"/></g></g><g><g><path d="M74.09983325195313,19.507318550109865L70.86923325195312,19.507318550109865C70.74603325195312,19.507318550109865,70.63643325195312,19.452618550109865,70.55433325195312,19.370518550109864L61.87535325195312,9.281498550109863L61.87535325195312,19.096718550109863C61.87535325195312,19.329418550109864,61.69739325195312,19.507318550109865,61.464683251953126,19.507318550109865L57.22101125195312,19.507318550109865C56.988292251953126,19.507318550109865,56.810333251953125,19.329418550109864,56.810333251953125,19.096718550109863L56.810333251953125,0.9994965501098633C56.810333251953125,0.7667785501098633,56.988292251953126,0.5888185501098633,57.22101125195312,0.5888185501098633L60.451673251953125,0.5888185501098633C60.57487325195312,0.5888185501098633,60.684393251953125,0.6435755501098632,60.766523251953124,0.7257115501098632L69.47293325195312,10.787318550109863L69.47293325195312,0.9994965501098633C69.47293325195312,0.7667785501098633,69.65083325195313,0.5888185501098633,69.88353325195312,0.5888185501098633L74.09983325195313,0.5888185501098633C74.33253325195312,0.5888185501098633,74.51053325195312,0.7667785501098633,74.51053325195312,0.9994965501098633L74.51053325195312,19.096718550109863C74.51053325195312,19.329418550109864,74.33253325195312,19.507318550109865,74.09983325195313,19.507318550109865ZM71.06083325195313,18.686018550109864L73.70283325195312,18.686018550109864L73.70283325195312,1.4101735501098633L70.30793325195313,1.4101735501098633L70.30793325195313,11.909818550109863C70.30793325195313,12.087818550109864,70.19843325195312,12.238418550109863,70.03413325195312,12.293118550109863C69.86983325195312,12.347918550109863,69.69193325195313,12.306818550109863,69.58243325195312,12.183618550109863L60.28740325195312,1.4238635501098633L57.631684251953125,1.4238635501098633L57.631684251953125,18.699718550109864L61.05399325195312,18.699718550109864L61.05399325195312,8.172668550109863C61.05399325195312,7.994708550109864,61.16351325195313,7.844118550109863,61.32778325195312,7.789368550109863C61.49205325195312,7.734608550109863,61.67001325195312,7.7756785501098635,61.77952325195312,7.912568550109864L71.06083325195313,18.686018550109864Z" fill="#11181C" fill-opacity="1" style="mix-blend-mode:passthrough"/></g></g></g></g></g></svg>