<svg xmlns="http://www.w3.org/2000/svg" xmlns:xlink="http://www.w3.org/1999/xlink" fill="none" version="1.1" width="120" height="120" viewBox="0 0 120 120"><defs><clipPath id="master_svg0_147_034531"><rect x="0" y="0" width="120" height="120" rx="9.230769157409668"/></clipPath><clipPath id="master_svg1_147_034532"><rect x="14.76904296875" y="34.154296875" width="89.53845977783203" height="51.69230651855469" rx="0"/></clipPath></defs><g clip-path="url(#master_svg0_147_034531)"><rect x="0" y="0" width="120" height="120" rx="9.230769157409668" fill="#F3F4F6" fill-opacity="1"/><g clip-path="url(#master_svg1_147_034532)"><g><g><g><path d="M38.02662636260986,65.51434764648438C40.193026362609864,65.51434764648438,42.180426362609865,66.32119764648438,43.61272636260986,67.75560764648438C45.02712636260986,69.19000764648437,45.81492636260987,71.10848764648438,45.81492636260987,73.17048764648437C45.81492636260987,75.25038764648437,45.02712636260986,77.18678764648438,43.61272636260986,78.62118764648437C42.16252636260987,80.07358764648437,40.17512636260986,80.88038764648438,38.02662636260986,80.88038764648438C35.87812636260986,80.88038764648438,33.89079636260986,80.07358764648437,32.440566362609864,78.62118764648437C31.008236362609864,77.18678764648438,30.238356362609863,75.25038764648437,30.238356362609863,73.17048764648437C30.238356362609863,71.10848764648438,31.026146362609865,69.17207764648438,32.440566362609864,67.75559764648438C33.89079636260986,66.32119764648438,35.87812636260986,65.51434764648438,38.02662636260986,65.51434764648438ZM38.02662636260986,60.583587646484375C30.77548636260986,60.583587646484375,25.296826362609863,66.24947764648438,25.296826362609863,73.18838764648437C25.296826362609863,80.12728764648438,30.77548636260986,85.82908764648437,38.02662636260986,85.82908764648437C45.277826362609865,85.82908764648437,50.75642636260986,80.12738764648438,50.75642636260986,73.18838764648437C50.75642636260986,66.24947764648438,45.277826362609865,60.583587646484375,38.02662636260986,60.583587646484375Z" fill="#FFFFFF" fill-opacity="1" style="mix-blend-mode:passthrough"/></g><g><path d="M66.09986855010986,65.51434764648438C68.26626855010986,65.51434764648438,70.25366855010986,66.32119764648438,71.68596855010986,67.75560764648438C73.10036855010986,69.19000764648437,73.88816855010987,71.10848764648438,73.88816855010987,73.17048764648437C73.88816855010987,75.25038764648437,73.10036855010986,77.18678764648438,71.68596855010986,78.62118764648437C70.23576855010987,80.07358764648437,68.24836855010986,80.88038764648438,66.09986855010986,80.88038764648438C63.95136855010986,80.88038764648438,61.96403855010986,80.07358764648437,60.513808550109864,78.62118764648437C59.081478550109864,77.18678764648438,58.31160855010987,75.25038764648437,58.31160855010987,73.17048764648437C58.31160855010987,71.10848764648438,59.099388550109865,69.17207764648438,60.513808550109864,67.75559764648438C61.946138550109865,66.32119764648438,63.933468550109865,65.51434764648438,66.09986855010986,65.51434764648438ZM66.09986855010986,60.583587646484375C58.84872855010986,60.583587646484375,53.37006855010986,66.24947764648438,53.37006855010986,73.18838764648437C53.37006855010986,80.12728764648438,58.84872855010986,85.82908764648437,66.09986855010986,85.82908764648437C73.35106855010986,85.82908764648437,78.82966855010986,80.12738764648438,78.82966855010986,73.18838764648437C78.82966855010986,66.24947764648438,73.35106855010986,60.583587646484375,66.09986855010986,60.583587646484375Z" fill="#FFFFFF" fill-opacity="1" style="mix-blend-mode:passthrough"/></g><g><g><rect x="82.12458515167236" y="82.33280944824219" width="22.20109748840332" height="3.2632675170898438" rx="0" fill="#C4C4C4" fill-opacity="1" style="mix-blend-mode:passthrough"/></g><g><path d="M104.30778515167236,60.81620788574219L104.30778515167236,79.44550788574219L98.75748515167237,79.44550788574219L98.75748515167237,70.30119788574218L96.66268515167236,72.73970788574219L93.22508515167236,76.70220788574218L89.82335515167236,72.73970788574219L87.69275515167236,70.26533788574218L87.69275515167236,79.44550788574219L82.12458515167236,79.44550788574219L82.12458515167236,60.81620788574219L86.36785515167236,60.81620788574219L87.69275515167236,62.35818788574219L93.22508515167236,68.75921788574219L98.75748515167237,62.322337885742186L100.06448515167236,60.81620788574219L104.30778515167236,60.81620788574219Z" fill="#FFFFFF" fill-opacity="1" style="mix-blend-mode:passthrough"/></g></g><g><path d="M24.061373862609862,80.09080952148437L24.061373862609862,85.59530952148438L15.539013862609863,85.59530952148438L15.539013862609863,60.816009521484375L21.214613862609863,60.816009521484375L21.214613862609863,80.09080952148437L24.061373862609862,80.09080952148437Z" fill="#FFFFFF" fill-opacity="1" style="mix-blend-mode:passthrough"/></g></g><g><g><g><path d="M26.89014296875,58.234296875C20.10446296875,58.234296875,14.76904296875,52.927096875000004,14.76904296875,46.167396875C14.76904296875,39.425726875,20.10446296875,34.154296875,26.89014296875,34.154296875C33.69364296875,34.154296875,39.01124296875,39.425726875,39.01124296875,46.167396875C39.02914296875,52.927096875000004,33.69364296875,58.234296875,26.89014296875,58.234296875ZM26.89014296875,35.140448875C20.64159296875,35.140448875,15.75376896875,39.981556875,15.75376896875,46.167396875C15.75376896875,52.371196874999995,20.64159296875,57.230296875,26.89014296875,57.230296875C33.13864296875,57.230296875,38.026442968750004,52.371196874999995,38.026442968750004,46.167396875C38.04434296875,39.981556875,33.13864296875,35.140448875,26.89014296875,35.140448875ZM26.89014296875,53.482896875C23.004932968749998,53.482896875,19.83590296875,50.201696874999996,19.83590296875,46.167396875C19.83590296875,42.151096875,23.004932968749998,38.887826875,26.89014296875,38.887826875C30.77534296875,38.887826875,33.94434296875,42.151096875,33.94434296875,46.167396875C33.962242968750004,50.201696874999996,30.79324296875,53.482896875,26.89014296875,53.482896875ZM26.89014296875,39.873976875C23.54205296875,39.873976875,20.82063296875,42.706926875,20.82063296875,46.167396875C20.82063296875,49.663796875,23.54205296875,52.496696875,26.89014296875,52.496696875C30.238142968749997,52.496696875,32.95964296875,49.663796875,32.95964296875,46.167396875C32.95964296875,42.706926875,30.23824296875,39.873976875,26.89014296875,39.873976875Z" fill="#FFFFFF" fill-opacity="1" style="mix-blend-mode:passthrough"/></g></g><g><g><path d="M45.94037000488281,57.64278203125L40.837696004882815,57.64278203125C40.56913400488281,57.64278203125,40.33638000488281,57.42758203125,40.33638000488281,57.14068203125L40.33638000488281,35.37362303125C40.33638000488281,35.10467303125,40.55122900488281,34.87158203125,40.837696004882815,34.87158203125L51.41898000488281,34.87158203125C57.900280004882816,34.87158203125,60.80078000488281,39.21065203125,60.80078000488281,43.53179203125C60.80078000488281,47.85288203125,57.900280004882816,52.19198203125,51.41898000488281,52.19198203125L46.44168000488281,52.19198203125L46.44168000488281,57.14068203125C46.44168000488281,57.40968203125,46.226830004882814,57.64278203125,45.94037000488281,57.64278203125ZM41.33901000488281,56.63868203125L45.45695000488281,56.63868203125L45.45695000488281,51.68998203125C45.45695000488281,51.42098203125,45.67180000488281,51.18788203125,45.95827000488281,51.18788203125L51.43688000488281,51.18788203125C56.53958000488281,51.18788203125,59.83398000488281,48.17568203125,59.83398000488281,43.51386203125C59.83398000488281,38.85205203125,56.53958000488281,35.83980503125,51.43698000488281,35.83980503125L41.35692000488281,35.83980503125L41.35692000488281,56.63868203125L41.33901000488281,56.63868203125ZM51.38318000488281,47.51228203125L45.94037000488281,47.51228203125C45.671810004882815,47.51228203125,45.439050004882816,47.29708203125,45.439050004882816,47.01018203125L45.439050004882816,39.99957203125C45.439050004882816,39.73062203125,45.653900004882814,39.49753203125,45.94037000488281,39.49753203125L51.38318000488281,39.49753203125C53.83608000488282,39.49753203125,55.680180004882814,41.21882203125,55.680180004882814,43.51386203125C55.680180004882814,45.790982031249996,53.83608000488282,47.51228203125,51.38318000488281,47.51228203125ZM46.44168000488281,46.52608203125L51.38318000488281,46.52608203125C53.298980004882814,46.52608203125,54.67758000488281,45.27098203125,54.67758000488281,43.53179203125C54.67758000488281,41.77465203125,53.28108000488281,40.50161203125,51.38318000488281,40.50161203125L46.44168000488281,40.50161203125L46.44168000488281,46.52608203125Z" fill="#FFFFFF" fill-opacity="1" style="mix-blend-mode:passthrough"/></g></g><g><g><path d="M80.5489884765625,57.64278203125L62.5195014765625,57.64278203125C62.2509394765625,57.64278203125,62.0181884765625,57.42758203125,62.0181884765625,57.14068203125L62.0181884765625,35.37362303125C62.0181884765625,35.10467303125,62.2330404765625,34.87158203125,62.5195014765625,34.87158203125L80.5668884765625,34.87158203125C80.8353884765625,34.87158203125,81.0681884765625,35.08674203125,81.0681884765625,35.37362303125L81.0681884765625,39.92785203125C81.0681884765625,40.19680203125,80.8532884765625,40.42989203125,80.5668884765625,40.42989203125L68.1234884765625,40.42989203125L68.1234884765625,43.49593203125L78.2392884765625,43.49593203125C78.5078884765625,43.49593203125,78.7405884765625,43.711092031250004,78.7405884765625,43.99797203125L78.7405884765625,48.55218203125C78.7405884765625,48.821182031250004,78.5257884765625,49.05428203125,78.2392884765625,49.05428203125L68.1234884765625,49.05428203125L68.1234884765625,52.13818203125L80.5668884765625,52.13818203125C80.8353884765625,52.13818203125,81.0681884765625,52.35338203125,81.0681884765625,52.640282031249995L81.0681884765625,57.194482031250004C81.0502884765625,57.40968203125,80.8353884765625,57.64278203125,80.5489884765625,57.64278203125ZM63.0029094765625,56.63868203125L80.0654884765625,56.63868203125L80.0654884765625,53.07058203125L67.6221684765625,53.07058203125C67.3536084765625,53.07058203125,67.1208584765625,52.85538203125,67.1208584765625,52.56858203125L67.1208584765625,48.516382031250004C67.1208584765625,48.24738203125,67.3357084765625,48.01428203125,67.6221684765625,48.01428203125L77.73798847656249,48.01428203125L77.73798847656249,44.46415203125L67.6221684765625,44.46415203125C67.3536084765625,44.46415203125,67.1208584765625,44.24899203125,67.1208584765625,43.96211203125L67.1208584765625,39.90992203125C67.1208584765625,39.64097203125,67.3357084765625,39.40788203125,67.6221684765625,39.40788203125L80.0654884765625,39.40788203125L80.0654884765625,35.85773403125L63.0029144765625,35.85773403125L63.0029094765625,56.63868203125Z" fill="#FFFFFF" fill-opacity="1" style="mix-blend-mode:passthrough"/></g></g><g><g><path d="M103.82399248046875,57.64278203125L99.93879248046875,57.64278203125C99.79549248046875,57.64278203125,99.65229248046874,57.58898203125,99.56279248046874,57.463482031249995L89.14259248046875,45.32478203125L89.14259248046875,57.14068203125C89.14259248046875,57.40968203125,88.92774248046875,57.64278203125,88.64127248046876,57.64278203125L83.53860548046875,57.64278203125C83.27004348046874,57.64278203125,83.03729248046875,57.42758203125,83.03729248046875,57.14068203125L83.03729248046875,35.37362303125C83.03729248046875,35.10467303125,83.25214348046875,34.87158203125,83.53860548046875,34.87158203125L87.42380248046875,34.87158203125C87.56703248046875,34.87158203125,87.71026248046876,34.92537223125,87.79978248046875,35.05088203125L98.25579248046876,47.15368203125L98.25579248046876,35.37362303125C98.25579248046876,35.10467303125,98.47059248046875,34.87158203125,98.75709248046874,34.87158203125L103.82399248046875,34.87158203125C104.09249248046875,34.87158203125,104.32529248046875,35.08674203125,104.32529248046875,35.37362303125L104.32529248046875,57.14068203125C104.30739248046875,57.40968203125,104.09249248046875,57.64278203125,103.82399248046875,57.64278203125ZM100.15359248046875,56.63868203125L103.32269248046875,56.63868203125L103.32269248046875,35.85773403125L99.24049248046875,35.85773403125L99.24049248046875,48.48048203125C99.24049248046875,48.69568203125,99.11519248046875,48.87498203125,98.91829248046875,48.94668203125C98.72129248046875,49.01838203125,98.50649248046875,48.96458203125,98.38109248046875,48.80318203125L87.20895248046875,35.85773403125L84.03992248046875,35.85773403125L84.03992248046875,56.63868203125L88.15787248046875,56.63868203125L88.15787248046875,43.99797203125C88.15787248046875,43.78281203125,88.28320248046874,43.60351203125,88.48014248046874,43.53179203125C88.67708248046875,43.46007203125,88.89193248046875,43.51386203125,89.01726248046874,43.67523203125L100.15359248046875,56.63868203125Z" fill="#FFFFFF" fill-opacity="1" style="mix-blend-mode:passthrough"/></g></g></g></g></g></g></svg>