<svg xmlns="http://www.w3.org/2000/svg" xmlns:xlink="http://www.w3.org/1999/xlink" fill="none" version="1.1" width="32" height="32" viewBox="0 0 32 32"><defs><clipPath id="master_svg0_73_28169"><rect x="0" y="0" width="32" height="32" rx="0"/></clipPath></defs><g clip-path="url(#master_svg0_73_28169)"><g><path d="M31.971415234375,15.99442801513672Q31.971415234375,16.38522801513672,31.952215234375,16.775628015136718Q31.933015234375,17.165928015136718,31.894715234375,17.554928015136717Q31.856415234375,17.94382801513672,31.799115234375,18.330428015136718Q31.741715234375,18.71702801513672,31.665515234375,19.100328015136718Q31.589215234375,19.48362801513672,31.494315234375,19.862728015136717Q31.399315234375,20.24192801513672,31.285915234375,20.615828015136717Q31.172415234375,20.98982801513672,31.040815234375,21.357828015136718Q30.909115234375,21.72582801513672,30.759515234375,22.086928015136717Q30.610015234375,22.447928015136718,30.442915234375,22.80122801513672Q30.275815234375,23.15452801513672,30.091515234375,23.49922801513672Q29.907315234375,23.84392801513672,29.706415234375,24.17912801513672Q29.505515234375,24.51432801513672,29.288315234375,24.83932801513672Q29.071215234375,25.164328015136718,28.838415234375,25.478228015136718Q28.605615234375,25.79212801513672,28.357615234375,26.094228015136718Q28.109715234375,26.396328015136717,27.847215234375,26.685928015136717Q27.584815234375,26.975528015136717,27.308415234375,27.25182801513672Q27.032115234375,27.52822801513672,26.742515234375,27.79062801513672Q26.452915234375,28.053128015136718,26.150815234375,28.30102801513672Q25.848715234375,28.54902801513672,25.534815234375,28.781828015136718Q25.220915234375,29.01462801513672,24.895915234375,29.231728015136717Q24.570915234375,29.44892801513672,24.235715234375,29.64982801513672Q23.900515234375,29.85072801513672,23.555815234375,30.034928015136718Q23.211115234375,30.219228015136718,22.857815234375,30.38632801513672Q22.504515234375,30.553428015136717,22.143515234375,30.70292801513672Q21.782415234375,30.85252801513672,21.414415234375,30.98422801513672Q21.046415234375,31.115828015136717,20.672415234375,31.22932801513672Q20.298515234375,31.342728015136718,19.919315234375,31.43772801513672Q19.540215234375,31.53262801513672,19.156915234375,31.60892801513672Q18.773615234375,31.68512801513672,18.387015234375,31.74252801513672Q18.000415234375,31.79982801513672,17.611515234375,31.838128015136718Q17.222515234375,31.876428015136717,16.832215234375,31.89562801513672Q16.441815234375,31.91482801513672,16.051015234375,31.91482801513672Q15.660215234375,31.91482801513672,15.269815234375,31.89562801513672Q14.879515234375,31.876428015136717,14.490515234375,31.838128015136718Q14.101615234375,31.79982801513672,13.715015234375,31.74252801513672Q13.328415234375,31.68512801513672,12.945115234375,31.60892801513672Q12.561815234375,31.53262801513672,12.182715234375,31.43772801513672Q11.803515234375,31.342728015136718,11.429515234375,31.22932801513672Q11.055615234375,31.115828015136717,10.687615234375,30.98422801513672Q10.319615234375,30.85252801513672,9.958535234375,30.70292801513672Q9.597465234375,30.553428015136717,9.244165234375,30.38632801513672Q8.890865234375,30.219228015136718,8.546185234375,30.034928015136718Q8.201515234375,29.85072801513672,7.866295234375,29.64982801513672Q7.531075234375,29.44892801513672,7.206115234375,29.231728015136717Q6.881155234375,29.01462801513672,6.567245234375,28.781828015136718Q6.253335234375,28.54902801513672,5.951215234375,28.30102801513672Q5.649105234375,28.053128015136718,5.359525234375,27.79062801513672Q5.069945234375,27.52822801513672,4.793595234375,27.25182801513672Q4.517235234375,26.975528015136717,4.254775234375,26.685928015136717Q3.992315234375,26.396328015136717,3.744375234375,26.094228015136718Q3.496445234375,25.79212801513672,3.263625234375,25.478228015136718Q3.030815234375,25.164328015136718,2.813685234375,24.83932801513672Q2.596555234375,24.51432801513672,2.395635234375,24.17912801513672Q2.194705234375,23.84392801513672,2.010475234375,23.49922801513672Q1.826245234375,23.15452801513672,1.659145234375,22.80122801513672Q1.492045234375,22.447928015136718,1.342485234375,22.086928015136717Q1.192925234375,21.72582801513672,1.061257234375,21.357828015136718Q0.929592234375,20.98982801513672,0.816142234375,20.615828015136717Q0.702692234375,20.24192801513672,0.607729234375,19.862728015136717Q0.512767234375,19.48362801513672,0.436521234375,19.100328015136718Q0.360275234375,18.71702801513672,0.30292923437499997,18.330428015136718Q0.24558323437500001,17.94382801513672,0.20727633437499998,17.554928015136717Q0.168968834375,17.165928015136718,0.149792034375,16.775628015136718Q0.130615234375,16.38522801513672,0.130615234375,15.99442801513672Q0.130615234375,15.603628015136719,0.149792034375,15.21322801513672Q0.168968834375,14.82292801513672,0.20727633437499998,14.433928015136718Q0.24558323437500001,14.045028015136719,0.30292923437499997,13.65842801513672Q0.360275234375,13.27182801513672,0.436521234375,12.88852801513672Q0.512767234375,12.50522801513672,0.607729234375,12.126128015136718Q0.702692234375,11.746928015136719,0.816142234375,11.372928015136718Q0.929592234375,10.99902801513672,1.061257234375,10.63102801513672Q1.192925234375,10.263028015136719,1.342485234375,9.90194801513672Q1.492045234375,9.54087801513672,1.659145234375,9.187578015136719Q1.826245234375,8.834278015136718,2.010475234375,8.48959801513672Q2.194705234375,8.144928015136719,2.395635234375,7.809708015136719Q2.596555234375,7.474488015136719,2.813685234375,7.149528015136719Q3.030815234375,6.824568015136719,3.263625234375,6.510658015136719Q3.496445234375,6.196738015136718,3.744375234375,5.8946280151367185Q3.992315234375,5.592518015136719,4.254775234375,5.302938015136719Q4.517235234375,5.013358015136719,4.793595234375,4.737008015136719Q5.069945234375,4.4606480151367185,5.359525234375,4.198188015136719Q5.649105234375,3.9357280151367187,5.951215234375,3.687788015136719Q6.253335234375,3.4398580151367186,6.567245234375,3.207038015136719Q6.881155234375,2.9742280151367186,7.206115234375,2.7570980151367186Q7.531075234375,2.5399680151367185,7.866295234375,2.3390480151367186Q8.201515234375,2.138118015136719,8.546185234375,1.9538880151367188Q8.890865234375,1.7696580151367187,9.244165234375,1.6025580151367187Q9.597465234375,1.4354580151367187,9.958535234375,1.2858980151367188Q10.319615234375,1.1363380151367188,10.687615234375,1.0046700151367187Q11.055615234375,0.8730050151367188,11.429615234375,0.7595550151367187Q11.803515234375,0.6461050151367187,12.182715234375,0.5511420151367188Q12.561815234375,0.45618001513671874,12.945115234375,0.37993401513671876Q13.328415234375,0.3036880151367187,13.715015234375,0.24634201513671874Q14.101615234375,0.18899601513671876,14.490515234375,0.15068911513671873Q14.879515234375,0.11238161513671875,15.269815234375,0.09320481513671874Q15.660215234375,0.07402801513671875,16.051015234375,0.07402801513671875Q16.441815234375,0.07402801513671875,16.832215234375,0.09320481513671874Q17.222515234375,0.11238161513671875,17.611515234375,0.15068911513671873Q18.000415234375,0.18899601513671876,18.387015234375,0.24634201513671874Q18.773615234375,0.3036880151367187,19.156915234375,0.37993401513671876Q19.540215234375,0.45618001513671874,19.919315234375,0.5511420151367188Q20.298515234375,0.6461050151367187,20.672415234375,0.7595550151367187Q21.046415234375,0.8730050151367188,21.414415234375,1.0046700151367187Q21.782415234375,1.1363380151367188,22.143515234375,1.2858980151367188Q22.504515234375,1.4354580151367187,22.857815234375,1.6025580151367187Q23.211115234375,1.7696580151367187,23.555815234375,1.9538880151367188Q23.900515234375,2.138118015136719,24.235715234375,2.3390480151367186Q24.570915234375,2.5399680151367185,24.895915234375,2.7570980151367186Q25.220915234375,2.9742280151367186,25.534815234375,3.207038015136719Q25.848715234375,3.4398580151367186,26.150815234375,3.687788015136719Q26.452915234375,3.9357280151367187,26.742515234375,4.198188015136719Q27.032115234375,4.4606480151367185,27.308415234375,4.737008015136719Q27.584815234375,5.013358015136719,27.847215234375,5.302938015136719Q28.109715234375,5.592518015136719,28.357615234375,5.8946280151367185Q28.605615234375,6.196738015136718,28.838415234375,6.510658015136719Q29.071215234375,6.824568015136719,29.288315234375,7.149528015136719Q29.505515234375,7.474488015136719,29.706415234375,7.809708015136719Q29.907315234375,8.144928015136719,30.091515234375,8.48959801513672Q30.275815234375,8.834278015136718,30.442915234375,9.187578015136719Q30.610015234375,9.54087801513672,30.759515234375,9.90194801513672Q30.909115234375,10.263028015136719,31.040815234375,10.63102801513672Q31.172415234375,10.99902801513672,31.285915234375,11.373028015136718Q31.399315234375,11.746928015136719,31.494315234375,12.126128015136718Q31.589215234375,12.50522801513672,31.665515234375,12.88852801513672Q31.741715234375,13.27182801513672,31.799115234375,13.65842801513672Q31.856415234375,14.045028015136719,31.894715234375,14.433928015136718Q31.933015234375,14.82292801513672,31.952215234375,15.21322801513672Q31.971415234375,15.603628015136719,31.971415234375,15.99442801513672Z" fill="#1BA27A" fill-opacity="1" style="mix-blend-mode:passthrough"/><path d="M27.662115234375,4.383418015136718Q22.852715234375,-0.42597198486328125,16.051015234375,-0.42597198486328125Q9.249495234375,-0.42597198486328125,4.440065234375,4.383418015136718Q-0.369384765625,9.192848015136718,-0.369384765625,15.99442801513672Q-0.36938976562500003,22.79612801513672,4.440065234375,27.60552801513672Q9.249455234375,32.41482801513672,16.051015234375,32.41482801513672Q22.852715234375,32.41482801513672,27.662115234375,27.60552801513672Q32.471415234375,22.79612801513672,32.471415234375,15.99442801513672Q32.471415234375,9.192798015136718,27.662115234375,4.383418015136718ZM5.147175234375,5.0905280151367185Q9.663705234375,0.5740280151367188,16.051015234375,0.5740280151367188Q22.438515234375,0.5740280151367188,26.955015234375,5.0905280151367185Q31.471415234375,9.607008015136719,31.471415234375,15.99442801513672Q31.471415234375,22.38192801513672,26.955015234375,26.89842801513672Q22.438515234375,31.41482801513672,16.051015234375,31.41482801513672Q9.663675234375,31.41482801513672,5.147175234375,26.89842801513672Q0.630615234375,22.38192801513672,0.630615234375,15.99442801513672Q0.630615234375,9.60704801513672,5.147175234375,5.0905280151367185Z" fill-rule="evenodd" fill="#FFFFFF" fill-opacity="1"/></g><g><path d="M23.52275390625,8.10205078125L8.44775390625,8.10205078125L8.44775390625,11.74145078125L14.16556390625,11.74145078125L14.16556390625,17.09071078125L17.804963906250002,17.09071078125L17.804963906250002,11.74145078125L23.52275390625,11.74145078125L23.52275390625,8.10205078125Z" fill="#FFFFFF" fill-opacity="1" style="mix-blend-mode:passthrough"/></g><g><path d="M16.019956171875002,17.660495837402344C11.290006171875,17.660495837402344,7.455256171875,16.911915837402343,7.455256171875,15.988375837402344C7.455256171875,15.064995837402344,11.289846171875,14.316259837402344,16.019956171875002,14.316259837402344C20.749876171875,14.316259837402344,24.584476171875,15.064995837402344,24.584476171875,15.988375837402344C24.584476171875,16.911915837402343,20.749876171875,17.660495837402344,16.019956171875002,17.660495837402344ZM25.636676171875,16.267145837402342C25.636676171875,15.076299837402344,21.331176171875,14.111045837402344,16.019956171875002,14.111045837402344C10.708906171875,14.111045837402344,6.403076171875,15.076299837402344,6.403076171875,16.267145837402342C6.403076171875,17.315825837402343,9.741746171875,18.189535837402346,14.165866171874999,18.383125837402343L14.165866171874999,26.062145837402344L17.804976171874998,26.062145837402344L17.804976171874998,18.386145837402346C22.263176171875,18.198605837402344,25.636676171875,17.321235837402345,25.636676171875,16.267145837402342Z" fill="#FFFFFF" fill-opacity="1" style="mix-blend-mode:passthrough"/></g></g></svg>