<svg xmlns="http://www.w3.org/2000/svg" xmlns:xlink="http://www.w3.org/1999/xlink" fill="none" version="1.1" width="64" height="64" viewBox="0 0 64 64"><defs><clipPath id="master_svg0_63_08550"><rect x="0" y="0" width="64" height="64" rx="0"/></clipPath></defs><g clip-path="url(#master_svg0_63_08550)"><g><path d="M63.941365625,31.9892375Q63.941365625,32.7708375,63.902965625,33.5515375Q63.864665625,34.3323375,63.788065625,35.1101375Q63.711465625,35.8880375,63.596765625,36.6612375Q63.482065625,37.4344375,63.329565625,38.2010375Q63.177065625,38.9677375,62.987165625,39.7259375Q62.797165625,40.4841375,62.570265625,41.2321375Q62.343365625,41.9801375,62.080065625,42.7160375Q61.816765625,43.4520375,61.517665625,44.1741375Q61.218465625,44.8963375,60.884265625,45.6029375Q60.550065625,46.3095375,60.181665625,46.9988375Q59.813165625,47.6882375,59.411365625,48.3586375Q59.009465625,49.0291375,58.575165625,49.6790375Q58.140965625,50.3289375,57.675365625,50.9567375Q57.209665625,51.5846375,56.713865625,52.1888375Q56.217965625,52.7930375,55.693065625,53.3722375Q55.168065625,53.9513375,54.615365625,54.5040375Q54.062665625,55.0567375,53.483565625,55.5817375Q52.904365625,56.1066375,52.300165625,56.6025375Q51.695965625,57.0983375,51.068065625,57.5640375Q50.440265625,58.0296375,49.790365625,58.4638375Q49.140465625,58.8981375,48.469965625,59.3000375Q47.799565625,59.7018375,47.110165625,60.0703375Q46.420865625,60.4387375,45.714265625,60.7729375Q45.007665625,61.1071375,44.285465625,61.4062375Q43.563365625,61.7054375,42.827365625,61.9687375Q42.091465625,62.2320375,41.343465625,62.4589375Q40.595465625,62.6858375,39.837265625,62.8758375Q39.079065625,63.0657375,38.312365625,63.2182375Q37.545765625,63.3707375,36.772565625,63.4854375Q35.999365625,63.6001375,35.221465625,63.6767375Q34.443665625,63.7533375,33.662865625,63.7916375Q32.882165625,63.8300375,32.100565625,63.8300375Q31.318865625,63.8300375,30.538165625,63.7916375Q29.757465625,63.7533375,28.979665625,63.6767375Q28.201765625,63.6001375,27.428565625,63.4854375Q26.655365625,63.3707375,25.888765625,63.2182375Q25.122065625,63.0657375,24.363865625,62.8758375Q23.605665625,62.6858375,22.857665625,62.4589375Q22.109665625,62.2320375,21.373765625,61.9687375Q20.637765625,61.7054375,19.915565625,61.4062375Q19.193465625,61.1071375,18.486865625,60.7729375Q17.780265625,60.4387375,17.090865625,60.0703375Q16.401565625,59.7018375,15.731165625,59.3000375Q15.060665625,58.8981375,14.410765625,58.4638375Q13.760865625,58.0296375,13.133065625,57.5640375Q12.505165625,57.0983375,11.900965625,56.6025375Q11.296765625,56.1066375,10.717565625,55.5817375Q10.138425625,55.0567375,9.585715625,54.5040375Q9.033005625,53.9513375,8.508085625,53.3722375Q7.983165625,52.7930375,7.487295625,52.1888375Q6.991425625,51.5846375,6.525795625,50.9567375Q6.060165625,50.3289375,5.625905625,49.6790375Q5.191645625,49.0291375,4.789795625,48.3586375Q4.387955625,47.6882375,4.019485625,46.9988375Q3.651015625,46.3095375,3.316825625,45.6029375Q2.982625625,44.8963375,2.683505625,44.1741375Q2.384375625,43.4520375,2.121045625,42.7160375Q1.857715625,41.9801375,1.630815625,41.2321375Q1.403915625,40.4841375,1.213994625,39.7259375Q1.024069625,38.9677375,0.871577625,38.2010375Q0.719085625,37.4344375,0.6043936249999999,36.6612375Q0.489702625,35.8880375,0.413087625,35.1101375Q0.33647292500000003,34.3323375,0.298119225,33.5515375Q0.259765625,32.7708375,0.259765625,31.9892375Q0.259765625,31.2075375,0.298119225,30.4268375Q0.33647292500000003,29.6461375,0.413087625,28.8683375Q0.489702625,28.0904375,0.6043946250000001,27.3172375Q0.719085625,26.5440375,0.871577625,25.7774375Q1.024069625,25.0107375,1.213994625,24.2525375Q1.403915625,23.4943375,1.630815625,22.7463375Q1.857715625,21.9983375,2.121045625,21.2624375Q2.384375625,20.5264375,2.683505625,19.8042375Q2.982625625,19.0821375,3.316825625,18.3755375Q3.651015625,17.6689375,4.019485625,16.9795375Q4.387955625,16.2902375,4.789795625,15.6198375Q5.191645625,14.9493375,5.625905625,14.2994375Q6.060165625,13.6495375,6.525795625,13.0217375Q6.991425625,12.3938375,7.487295625,11.7896375Q7.983165625,11.1854375,8.508085625,10.6062375Q9.033005625,10.0270975,9.585715625,9.4743875Q10.138425625,8.9216775,10.717565625,8.3967575Q11.296765625,7.8718375,11.900965625,7.3759675Q12.505165625,6.8800975,13.133065625,6.4144675Q13.760865625,5.9488375,14.410765625,5.5145775Q15.060665625,5.0803175,15.731165625,4.6784675Q16.401565625,4.2766275,17.090865625,3.9081575Q17.780265625,3.5396875,18.486865625,3.2054975Q19.193465625,2.8712975,19.915565625,2.5721775Q20.637765625,2.2730475,21.373765625,2.0097175Q22.109665625,1.7463875,22.857665625,1.5194875Q23.605665625,1.2925875,24.363865625,1.1026665Q25.122065625,0.9127415,25.888765625,0.7602495Q26.655365625,0.6077575,27.428565625,0.4930655Q28.201765625,0.3783745,28.979665625,0.3017595Q29.757465625,0.2251448,30.538165625,0.1867911Q31.318865625,0.1484375,32.100565625,0.1484375Q32.882165625,0.1484375,33.662865625,0.1867911Q34.443665625,0.2251448,35.221465625,0.3017595Q35.999365625,0.3783745,36.772565625,0.4930655Q37.545765625,0.6077575,38.312365625,0.7602495Q39.079065625,0.9127415,39.837265625,1.1026665Q40.595465625,1.2925875,41.343465625,1.5194875Q42.091465625,1.7463875,42.827365625,2.0097175Q43.563365625,2.2730475,44.285465625,2.5721775Q45.007665625,2.8712975,45.714265625,3.2054975Q46.420865625,3.5396875,47.110165625,3.9081575Q47.799565625,4.2766275,48.469965625,4.6784675Q49.140465625,5.0803175,49.790365625,5.5145775Q50.440265625,5.9488375,51.068065625,6.4144675Q51.695965625,6.8800975,52.300165625,7.3759675Q52.904365625,7.8718375,53.483565625,8.3967575Q54.062665625,8.9216775,54.615365625,9.4743875Q55.168065625,10.0270975,55.693065625,10.6062375Q56.217965625,11.1854375,56.713865625,11.7896375Q57.209665625,12.3938375,57.675365625,13.0217375Q58.140965625,13.6495375,58.575165625,14.2994375Q59.009465625,14.9493375,59.411365625,15.6198375Q59.813165625,16.2902375,60.181665625,16.9795375Q60.550065625,17.6689375,60.884265625,18.3755375Q61.218465625,19.0821375,61.517665625,19.8042375Q61.816765625,20.5264375,62.080065625,21.2624375Q62.343365625,21.9983375,62.570265625,22.7463375Q62.797165625,23.4943375,62.987165625,24.2525375Q63.177065625,25.0107375,63.329565625,25.7774375Q63.482065625,26.5440375,63.596765625,27.3172375Q63.711465625,28.0904375,63.788065625,28.8683375Q63.864665625,29.6461375,63.902965625,30.4268375Q63.941365625,31.2075375,63.941365625,31.9892375Z" fill="#1BA27A" fill-opacity="1" style="mix-blend-mode:passthrough"/></g><g><path d="M47.046584374999995,16.2041015625L16.896484375,16.2041015625L16.896484375,23.4829115625L28.332084375,23.4829115625L28.332084375,34.1814015625L35.610884375,34.1814015625L35.610884375,23.4829015625L47.046584374999995,23.4829015625L47.046584374999995,16.2041015625Z" fill="#FFFFFF" fill-opacity="1" style="mix-blend-mode:passthrough"/></g><g><path d="M32.040440625,35.32155625C22.580490625,35.32155625,14.911000625,33.82440625,14.911000625,31.97732625C14.911000625,30.13055625,22.580170625,28.63308325,32.040440625,28.63308325C41.500340625,28.63308325,49.169440625,30.13055625,49.169440625,31.97732625C49.169440625,33.82440625,41.500340625,35.32155625,32.040440625,35.32155625ZM51.273840625,32.53485625C51.273840625,30.153166249999998,42.662840625,28.22265625,32.040440625,28.22265625C21.418300625,28.22265625,12.806640625,30.153166249999998,12.806640625,32.53485625C12.806640625,34.63220625,19.483970625,36.37962625,28.332240625,36.76681625L28.332240625,52.12485625L35.610340625,52.12485625L35.610340625,36.77286625C44.526740625,36.397786249999996,51.273840625,34.64303625,51.273840625,32.53485625Z" fill="#FFFFFF" fill-opacity="1" style="mix-blend-mode:passthrough"/></g></g></svg>