<svg xmlns="http://www.w3.org/2000/svg" xmlns:xlink="http://www.w3.org/1999/xlink" fill="none" version="1.1" width="24" height="24" viewBox="0 0 24 24"><defs><clipPath id="master_svg0_83_5570"><rect x="0" y="0" width="24" height="24" rx="0"/></clipPath></defs><g clip-path="url(#master_svg0_83_5570)"><g><path d="M21.45078125,12.000048828125Q21.45078125,12.232028828125,21.43938125,12.463738828125Q21.42798125,12.695448828125,21.40528125,12.926348828125Q21.38258125,13.157148828125,21.34848125,13.386648828125Q21.31448125,13.616148828125,21.26918125,13.843648828125Q21.22398125,14.071148828125,21.16758125,14.296248828125Q21.11118125,14.521248828125,21.04388125,14.743248828125Q20.97648125,14.965248828125,20.89838125,15.183648828125Q20.82018125,15.402048828125,20.73148125,15.616448828125Q20.64268125,15.830748828125,20.54348125,16.040448828125Q20.44428125,16.250148828125,20.33498125,16.454748828125Q20.22558125,16.659348828124998,20.10628125,16.858348828125Q19.98708125,17.057248828124997,19.85818125,17.250148828125Q19.72928125,17.443048828125,19.59108125,17.629448828125Q19.45288125,17.815748828125002,19.30568125,17.995048828125Q19.15858125,18.174348828124998,19.00278125,18.346248828125Q18.84698125,18.518148828125,18.68298125,18.682248828125Q18.51888125,18.846248828125,18.34698125,19.002048828125Q18.175081249999998,19.157848828125,17.99578125,19.304948828125Q17.816481250000002,19.452148828125,17.63018125,19.590348828125Q17.44378125,19.728548828125,17.25088125,19.857448828125Q17.057981249999997,19.986348828125,16.85908125,20.105548828125Q16.660081249999998,20.224848828125,16.45548125,20.334248828125Q16.25088125,20.443548828125,16.04118125,20.542748828125Q15.83148125,20.641948828125,15.61718125,20.730748828125Q15.40278125,20.819448828125,15.18438125,20.897648828125Q14.96598125,20.975748828125,14.74398125,21.043148828125Q14.52198125,21.110448828125,14.29698125,21.166848828125Q14.07188125,21.223248828125,13.84438125,21.268448828125Q13.61688125,21.313748828125,13.38738125,21.347748828125Q13.15788125,21.381848828125,12.92708125,21.404548828125Q12.69618125,21.427248828125,12.46447125,21.438648828125Q12.23276125,21.450048828125,12.00078125,21.450048828125Q11.76880125,21.450048828125,11.53709125,21.438648828125Q11.30539125,21.427248828125,11.07452125,21.404548828125Q10.84365125,21.381848828125,10.61418125,21.347748828125Q10.384701249999999,21.313748828125,10.15718125,21.268448828125Q9.92965125,21.223248828125,9.704621249999999,21.166848828125Q9.47959125,21.110448828125,9.25759125,21.043148828125Q9.03559125,20.975748828125,8.817171250000001,20.897648828125Q8.59875125,20.819448828125,8.384421249999999,20.730748828125Q8.17010125,20.641948828125,7.96038125,20.542748828125Q7.75067125,20.443548828125,7.54608125,20.334248828125Q7.34149125,20.224848828125,7.14251125,20.105548828125Q6.94353125,19.986348828125,6.75064125,19.857448828125Q6.55775125,19.728548828125,6.37142125,19.590348828125Q6.18509125,19.452148828125,6.00576125,19.304948828125Q5.82644125,19.157848828125,5.65455125,19.002048828125Q5.48266125,18.846248828125,5.31862125,18.682248828125Q5.15458125,18.518148828125,4.99879125,18.346248828125Q4.84300125,18.174348828124998,4.6958312499999995,17.995048828125Q4.54866125,17.815748828125002,4.4104712500000005,17.629448828125Q4.27228125,17.443048828125,4.1433912500000005,17.250148828125Q4.01451125,17.057248828124997,3.8952412499999998,16.858348828125Q3.77598125,16.659348828124998,3.66662125,16.454748828125Q3.5572712500000003,16.250148828125,3.45808225,16.040448828125Q3.35889625,15.830748828125,3.27011925,15.616448828125Q3.18134325,15.402048828125,3.10318925,15.183648828125Q3.02503625,14.965248828125,2.95769525,14.743248828125Q2.89035325,14.521248828125,2.83398525,14.296248828125Q2.77761825,14.071148828125,2.73236025,13.843648828125Q2.68710225,13.616148828125,2.65306325,13.386648828125Q2.61902385,13.157148828125,2.59628545,12.926348828125Q2.57354695,12.695448828125,2.56216405,12.463738828125Q2.550781071186,12.232028828125,2.550781071186,12.000048828125Q2.550781071186,11.768068828125,2.56216405,11.536358828125Q2.57354695,11.304658828125,2.59628545,11.073788828125Q2.61902385,10.842918828125,2.65306325,10.613448828125Q2.68710225,10.383968828124999,2.73236025,10.156448828125Q2.77761825,9.928918828125,2.83398525,9.703888828124999Q2.89035325,9.478858828125,2.95769525,9.256858828125Q3.02503625,9.034858828125,3.10318925,8.816438828125001Q3.18134325,8.598018828125,3.27011925,8.383688828124999Q3.35889625,8.169368828125,3.45808225,7.959648828125Q3.5572712500000003,7.749938828125,3.66662125,7.545348828125Q3.77598125,7.340758828125,3.8952412499999998,7.141778828125Q4.01451125,6.942798828125,4.1433912500000005,6.749908828125Q4.27228125,6.557018828125,4.4104712500000005,6.370688828125Q4.54866125,6.184358828125,4.6958312499999995,6.005028828125Q4.84300125,5.825708828125,4.99879125,5.653818828125Q5.15458125,5.481928828125,5.31862125,5.317888828125Q5.48266125,5.153848828125,5.65455125,4.998058828125Q5.82644125,4.842268828125,6.00576125,4.6950988281249995Q6.18509125,4.547928828125,6.37142125,4.4097388281250005Q6.55775125,4.271548828125,6.75064125,4.1426588281250005Q6.94353125,4.013778828125,7.14251125,3.8945088281249998Q7.34149125,3.775248828125,7.54608125,3.665888828125Q7.75067125,3.5565388281250003,7.96038125,3.457349828125Q8.17010125,3.358163828125,8.384421249999999,3.269386828125Q8.59875125,3.180610828125,8.817171250000001,3.102457828125Q9.03559125,3.024303828125,9.25759125,2.956962828125Q9.47959125,2.889620828125,9.704621249999999,2.833253828125Q9.92965125,2.776885828125,10.15718125,2.731627828125Q10.384701249999999,2.686369828125,10.61418125,2.652330828125Q10.84365125,2.618291628125,11.07452125,2.595553128125Q11.30539125,2.572814728125,11.53709125,2.561431728125Q11.76880125,2.550048828125,12.00078125,2.550048828125Q12.23276125,2.550048828125,12.46447125,2.561431728125Q12.69618125,2.572814728125,12.92708125,2.595553128125Q13.15788125,2.618291628125,13.38738125,2.652330828125Q13.61688125,2.686369828125,13.84438125,2.731627828125Q14.07188125,2.776885828125,14.29698125,2.833253828125Q14.52198125,2.889620828125,14.74398125,2.956962828125Q14.96598125,3.024303828125,15.18438125,3.102457828125Q15.40278125,3.180610828125,15.61718125,3.269386828125Q15.83148125,3.358163828125,16.04118125,3.457349828125Q16.25088125,3.5565388281250003,16.45548125,3.665888828125Q16.660081249999998,3.775248828125,16.85908125,3.8945088281249998Q17.057981249999997,4.013778828125,17.25088125,4.1426588281250005Q17.44378125,4.271548828125,17.63018125,4.4097388281250005Q17.816481250000002,4.547928828125,17.99578125,4.6950988281249995Q18.175081249999998,4.842268828125,18.34698125,4.998058828125Q18.51888125,5.153848828125,18.68298125,5.317888828125Q18.84698125,5.481928828125,19.00278125,5.653818828125Q19.15858125,5.825708828125,19.30568125,6.005028828125Q19.45288125,6.184358828125,19.59108125,6.370688828125Q19.72928125,6.557018828125,19.85818125,6.749908828125Q19.98708125,6.942798828125,20.10628125,7.141778828125Q20.22558125,7.340758828125,20.33498125,7.545348828125Q20.44428125,7.749938828125,20.54348125,7.959648828125Q20.64268125,8.169368828125,20.73148125,8.383688828124999Q20.82018125,8.598018828125,20.89838125,8.816438828125001Q20.97648125,9.034858828125,21.04388125,9.256858828125Q21.11118125,9.478858828125,21.16758125,9.703888828124999Q21.22398125,9.928918828125,21.26918125,10.156448828125Q21.31448125,10.383968828124999,21.34848125,10.613448828125Q21.38258125,10.842918828125,21.40528125,11.073788828125Q21.42798125,11.304658828125,21.43938125,11.536358828125Q21.45078125,11.768068828125,21.45078125,12.000048828125Z" fill="#F2B60A" fill-opacity="1" style="mix-blend-mode:passthrough"/></g><g><path d="M11.999609375,14.2499755859375C11.549609375,14.2499755859375,11.099609375,13.7999755859375,11.099609375,13.3499755859375L11.099609375,6.7499755859375C11.099609375,6.2999755859375,11.549609375,5.8499755859375,11.999609375,5.8499755859375C12.449609375,5.8499755859375,12.899609375,6.2999755859375,12.899609375,6.7499755859375L12.899609375,13.4999755859375C12.899609375,13.7999755859375,12.449609375,14.2499755859375,11.999609375,14.2499755859375Z" fill="#FFFFFF" fill-opacity="1" style="mix-blend-mode:passthrough"/></g><g><path d="M13.04921875,17.249951171875Q13.04921875,17.301531171875,13.04415875,17.352871171875Q13.03910875,17.404201171875002,13.02903875,17.454801171875Q13.01897875,17.505391171875,13.00400875,17.554751171875Q12.98902875,17.604111171875,12.96928875,17.651771171875Q12.94954875,17.699421171875,12.92523875,17.744921171875Q12.90091875,17.790411171875,12.87225875,17.833301171875Q12.84359875,17.876191171875,12.81087875,17.916061171875Q12.77815875,17.955941171875,12.74167875,17.992411171875Q12.70520875,18.028891171875,12.66532875,18.061611171875Q12.62545875,18.094341171875,12.58256875,18.122991171875Q12.53967875,18.151651171875,12.49418875,18.175971171875Q12.44868875,18.200281171874998,12.40103875,18.220021171875Q12.353378750000001,18.239761171875,12.304018750000001,18.254741171875Q12.25465875,18.269711171875,12.20405875,18.279781171875Q12.15346875,18.289841171875,12.10213875,18.294891171875Q12.05079875,18.299951171875,11.99921875,18.299951171875Q11.94763575,18.299951171875,11.89630075,18.294891171875Q11.84496575,18.289841171875,11.79437375,18.279781171875Q11.74378175,18.269711171875,11.69441975,18.254741171875Q11.64505775,18.239761171875,11.59740075,18.220021171875Q11.54974375,18.200281171874998,11.50425175,18.175971171875Q11.45875975,18.151651171875,11.41586975,18.122991171875Q11.37297975,18.094341171875,11.33310575,18.061611171875Q11.29323175,18.028891171875,11.25675675,17.992411171875Q11.22028175,17.955941171875,11.18755775,17.916061171875Q11.15483375,17.876191171875,11.12617575,17.833301171875Q11.09751775,17.790411171875,11.07320175,17.744921171875Q11.04888525,17.699421171875,11.02914525,17.651771171875Q11.00940515,17.604111171875,10.99443135,17.554751171875Q10.97945755,17.505391171875,10.96939415,17.454801171875Q10.95933085,17.404201171875002,10.95427478,17.352871171875Q10.94921875,17.301531171875,10.94921875,17.249951171875Q10.94921875,17.198368171875,10.95427478,17.147033171875Q10.95933085,17.095699171875,10.96939415,17.045106171875Q10.97945755,16.994514171875,10.99443135,16.945152171875Q11.00940515,16.895790171875,11.02914525,16.848134171875Q11.04888525,16.800477171875,11.07320175,16.754985171875Q11.09751775,16.709492171875,11.12617575,16.666602171875Q11.15483375,16.623713171875,11.18755775,16.583838171875Q11.22028175,16.543964171875,11.25675675,16.507489171875Q11.29323175,16.471014171875,11.33310575,16.438290171875Q11.37297975,16.405566171875,11.41586975,16.376908171875Q11.45875975,16.348250171875,11.50425175,16.323934171875Q11.54974475,16.299617771875,11.59740075,16.279877671875Q11.64505775,16.260137671875,11.69441975,16.245163871875Q11.74378175,16.230189971875,11.79437375,16.220126671875Q11.84496575,16.210063271875,11.89630075,16.205007211875Q11.94763575,16.199951171875,11.99921875,16.199951171875Q12.05079875,16.199951171875,12.10213875,16.205007211875Q12.15346875,16.210063271875,12.20405875,16.220126671875Q12.25465875,16.230189971875,12.304018750000001,16.245163871875Q12.353378750000001,16.260137671875,12.40103875,16.279877671875Q12.44868875,16.299617771875,12.49418875,16.323934171875Q12.53967875,16.348250171875,12.58256875,16.376908171875Q12.62545875,16.405566171875,12.66532875,16.438290171875Q12.70520875,16.471014171875,12.74167875,16.507489171875Q12.77815875,16.543964171875,12.81087875,16.583838171875Q12.84359875,16.623713171875,12.87225875,16.666602171875Q12.90091875,16.709492171875,12.92523875,16.754985171875Q12.94954875,16.800477171875,12.96928875,16.848134171875Q12.98902875,16.895790171875,13.00400875,16.945152171875Q13.01897875,16.994514171875,13.02903875,17.045106171875Q13.03910875,17.095699171875,13.04415875,17.147033171875Q13.04921875,17.198368171875,13.04921875,17.249951171875Z" fill="#FFFFFF" fill-opacity="1" style="mix-blend-mode:passthrough"/></g></g></svg>