<svg xmlns="http://www.w3.org/2000/svg" xmlns:xlink="http://www.w3.org/1999/xlink" fill="none" version="1.1" width="32" height="31.84450912475586" viewBox="0 0 32 31.84450912475586"><defs><clipPath id="master_svg0_73_28175"><rect x="0" y="0" width="32" height="31.84450912475586" rx="0"/></clipPath></defs><g clip-path="url(#master_svg0_73_28175)"><g><path d="M31.99524375,15.921339782714844Q31.99524375,16.312139782714844,31.97604375,16.702539782714844Q31.95694375,17.092939782714843,31.91854375,17.481839782714843Q31.88024375,17.870839782714842,31.82294375,18.257439782714844Q31.76554375,18.644039782714845,31.68934375,19.027439782714843Q31.61304375,19.410739782714845,31.51814375,19.789939782714843Q31.42314375,20.169039782714844,31.30964375,20.543039782714843Q31.19624375,20.917039782714845,31.06454375,21.285039782714843Q30.93284375,21.653039782714842,30.78334375,22.014139782714842Q30.63374375,22.375239782714843,30.46664375,22.728639782714843Q30.29954375,23.081939782714844,30.11524375,23.426639782714844Q29.93104375,23.771339782714843,29.73004375,24.106539782714844Q29.52914375,24.441839782714844,29.31204375,24.766739782714843Q29.09484375,25.091739782714843,28.86204375,25.405739782714843Q28.62924375,25.719639782714843,28.38124375,26.021739782714842Q28.13334375,26.323939782714845,27.87084375,26.613539782714845Q27.60834375,26.903139782714845,27.33194375,27.179439782714844Q27.05564375,27.455839782714843,26.76604375,27.718339782714843Q26.47644375,27.980839782714845,26.17424375,28.228739782714843Q25.87214375,28.476739782714844,25.55824375,28.709539782714845Q25.24424375,28.942339782714843,24.91924375,29.159539782714845Q24.59434375,29.376639782714843,24.25904375,29.577539782714844Q23.92384375,29.778539782714844,23.57914375,29.962739782714845Q23.23444375,30.147039782714845,22.88114375,30.314139782714843Q22.52774375,30.481239782714844,22.16664375,30.630839782714844Q21.80554375,30.780339782714844,21.43754375,30.912039782714842Q21.06954375,31.043739782714844,20.69554375,31.157139782714843Q20.32154375,31.270639782714845,19.94244375,31.365639782714844Q19.56324375,31.460539782714843,19.17994375,31.536839782714843Q18.79654375,31.613039782714843,18.40994375,31.670439782714844Q18.02334375,31.727739782714846,17.63434375,31.766139782714845Q17.24544375,31.804439782714844,16.85504375,31.823539782714843Q16.46464375,31.842739782714844,16.07384375,31.842739782714844Q15.68294375,31.842739782714844,15.29254375,31.823539782714843Q14.90214375,31.804439782714844,14.51324375,31.766139782714845Q14.12424375,31.727739782714846,13.73764375,31.670439782714844Q13.35104375,31.613039782714843,12.96764375,31.536839782714843Q12.58434375,31.460539782714843,12.20524375,31.365639782714844Q11.82604375,31.270639782714845,11.45204375,31.157139782714843Q11.07804375,31.043739782714844,10.71004375,30.912039782714842Q10.34204375,30.780339782714844,9.98092375,30.630839782714844Q9.61982375,30.481239782714844,9.26650375,30.314139782714843Q8.91317375,30.147039782714845,8.56847375,29.962739782714845Q8.22377375,29.778539782714844,7.88853375,29.577539782714844Q7.55329375,29.376639782714843,7.22831375,29.159539782714845Q6.90333375,28.942339782714843,6.58940375,28.709539782714845Q6.27546375,28.476739782714844,5.97333375,28.228739782714843Q5.67120375,27.980839782714845,5.38160375,27.718339782714843Q5.09200375,27.455839782714843,4.81563375,27.179439782714844Q4.53925375,26.903139782714845,4.27678375,26.613539782714845Q4.01430375,26.323939782714845,3.76634375,26.021739782714842Q3.51839375,25.719639782714843,3.28556375,25.405739782714843Q3.05273375,25.091739782714843,2.83559375,24.766739782714843Q2.61844375,24.441839782714844,2.41751375,24.106539782714844Q2.21657375,23.771339782714843,2.0323337500000003,23.426639782714844Q1.84808375,23.081939782714844,1.68097375,22.728639782714843Q1.51386375,22.375239782714843,1.36429375,22.014139782714842Q1.21472375,21.653039782714842,1.08304775,21.285039782714843Q0.95137375,20.917039782714845,0.83791675,20.543039782714843Q0.72445875,20.169039782714844,0.6294897500000001,19.789939782714843Q0.53452075,19.410739782714845,0.45826975,19.027439782714843Q0.38201874999999996,18.644039782714845,0.32466975,18.257439782714844Q0.26731974999999997,17.870839782714842,0.22900995000000002,17.481839782714843Q0.19069995,17.092939782714843,0.17152185,16.702539782714844Q0.15234375,16.312139782714844,0.15234375,15.921339782714844Q0.15234375,15.530439782714843,0.17152185,15.140039782714844Q0.19069995,14.749639782714844,0.22900995000000002,14.360739782714845Q0.26731974999999997,13.971739782714844,0.32466975,13.585139782714844Q0.38201874999999996,13.198539782714844,0.45826975,12.815139782714844Q0.53452075,12.431839782714844,0.6294897500000001,12.052739782714843Q0.72445875,11.673539782714844,0.83791675,11.299539782714843Q0.95137375,10.925539782714845,1.08304775,10.557539782714844Q1.21472375,10.189539782714844,1.36429375,9.828419782714844Q1.51386375,9.467319782714844,1.68097375,9.113999782714844Q1.84808375,8.760669782714844,2.0323337500000003,8.415969782714845Q2.21657375,8.071269782714843,2.41751375,7.736029782714843Q2.61844375,7.400789782714844,2.83559375,7.075809782714844Q3.05273375,6.750829782714844,3.28556375,6.4368997827148435Q3.51839375,6.122959782714844,3.76634375,5.820829782714844Q4.01430375,5.518699782714844,4.27678375,5.229099782714844Q4.53925375,4.939499782714844,4.81563375,4.663129782714844Q5.09200375,4.386749782714844,5.38160375,4.124279782714844Q5.67120375,3.8617997827148436,5.97333375,3.6138397827148436Q6.27546375,3.3658897827148437,6.58940375,3.133059782714844Q6.90333375,2.9002297827148436,7.22831375,2.683089782714844Q7.55329375,2.4659397827148437,7.88853375,2.2650097827148437Q8.22377375,2.0640697827148435,8.56847375,1.8798297827148438Q8.91317375,1.6955797827148438,9.26650375,1.5284697827148437Q9.61982375,1.3613597827148438,9.98092375,1.2117897827148438Q10.34204375,1.0622197827148439,10.71004375,0.9305437827148437Q11.07804375,0.7988697827148438,11.45204375,0.6854127827148437Q11.82604375,0.5719547827148438,12.20524375,0.47698578271484376Q12.58434375,0.38201678271484374,12.96764375,0.3057657827148437Q13.35104375,0.22951478271484374,13.73764375,0.17216578271484376Q14.12424375,0.11481578271484374,14.51324375,0.07650598271484375Q14.90214375,0.03819598271484375,15.29254375,0.01901788271484375Q15.68294375,-0.00016021728515625,16.07384375,-0.00016021728515625Q16.46464375,-0.00016021728515625,16.85504375,0.01901788271484375Q17.24544375,0.03819598271484375,17.63434375,0.07650598271484375Q18.02334375,0.11481578271484374,18.40994375,0.17216578271484376Q18.79654375,0.22951478271484374,19.17994375,0.3057657827148437Q19.56324375,0.38201678271484374,19.94244375,0.47698578271484376Q20.32154375,0.5719547827148438,20.69554375,0.6854127827148437Q21.06954375,0.7988697827148438,21.43754375,0.9305437827148437Q21.80554375,1.0622197827148439,22.16664375,1.2117897827148438Q22.52774375,1.3613597827148438,22.88114375,1.5284697827148437Q23.23444375,1.6955797827148438,23.57914375,1.8798297827148438Q23.92384375,2.0640697827148435,24.25904375,2.2650097827148437Q24.59434375,2.4659397827148437,24.91924375,2.683089782714844Q25.24424375,2.9002297827148436,25.55824375,3.133059782714844Q25.87214375,3.3658897827148437,26.17424375,3.6138397827148436Q26.47644375,3.8617997827148436,26.76604375,4.124279782714844Q27.05564375,4.386749782714844,27.33194375,4.663129782714844Q27.60834375,4.939499782714844,27.87084375,5.229099782714844Q28.13334375,5.518699782714844,28.38124375,5.820829782714844Q28.62924375,6.122959782714844,28.86204375,6.4368997827148435Q29.09484375,6.750829782714844,29.31204375,7.075809782714844Q29.52914375,7.400789782714844,29.73004375,7.736029782714843Q29.93104375,8.071269782714843,30.11524375,8.415969782714845Q30.29954375,8.760669782714844,30.46664375,9.113999782714844Q30.63374375,9.467319782714844,30.78334375,9.828419782714844Q30.93284375,10.189539782714844,31.06454375,10.557539782714844Q31.19624375,10.925539782714845,31.30964375,11.299539782714843Q31.42314375,11.673539782714844,31.51814375,12.052739782714843Q31.61304375,12.431839782714844,31.68934375,12.815139782714844Q31.76554375,13.198539782714844,31.82294375,13.585139782714844Q31.88024375,13.971739782714844,31.91854375,14.360739782714845Q31.95694375,14.749639782714844,31.97604375,15.140039782714844Q31.99524375,15.530439782714843,31.99524375,15.921339782714844Z" fill="#212121" fill-opacity="1" style="mix-blend-mode:passthrough"/></g><g><path d="M16.07380875,19.04572287536621L12.94921875,15.92130287536621L16.07380875,12.796712875366211L19.19838875,15.92130287536621L16.07380875,19.04572287536621ZM23.17441875,15.92130287536621L23.16121875,15.934352875366212L26.05921875,18.832222875366213L28.97021875,15.92130287536621L26.03921875,12.99015887536621L23.14121875,15.888022875366211L23.17441875,15.92130287536621Z" fill="#F4BB0B" fill-opacity="1" style="mix-blend-mode:passthrough"/></g><g><path d="M11.0517323046875,13.842717602539063L16.0738123046875,8.820647602539061L21.1698123046875,13.916617602539063L24.0675123046875,11.018917602539062L16.0738123046875,3.0249176025390625L8.1538623046875,10.944887602539062L11.0517323046875,13.842717602539063ZM21.1899123046875,17.905917602539063L16.0738123046875,23.021917602539062L11.0031723046875,17.951117602539064L8.1053023046875,20.849017602539064L16.0738123046875,28.817717602539062L24.0877123046875,20.803817602539063L21.1899123046875,17.905917602539063ZM8.973342304687499,15.921317602539062L9.0803323046875,15.814317602539063L6.1823123046875,12.916287602539063L3.1776123046875,15.921317602539062L6.133912304687501,18.87761760253906L9.0316123046875,15.979717602539063L8.973342304687499,15.921317602539062Z" fill="#F4BB0B" fill-opacity="1" style="mix-blend-mode:passthrough"/></g></g></svg>